<?xml version="1.0" encoding="UTF-8" standalone="no"?>
<!DOCTYPE svg PUBLIC "-//W3C//DTD SVG 1.1//EN"
 "http://www.w3.org/Graphics/SVG/1.1/DTD/svg11.dtd">
<!-- Generated by graphviz version 2.38.0 (20140413.2041)
 -->
<!-- Title: DFA Pages: 1 -->
<svg width="1170pt" height="4166pt"
 viewBox="0.00 0.00 1170.15 4166.26" xmlns="http://www.w3.org/2000/svg" xmlns:xlink="http://www.w3.org/1999/xlink">
<g id="graph0" class="graph" transform="scale(1 1) rotate(0) translate(4 4162.26)">
<title>DFA</title>
<polygon fill="white" stroke="none" points="-4,4 -4,-4162.26 1166.15,-4162.26 1166.15,4 -4,4"/>
<!-- n192 -->
<g id="node1" class="node"><title>n192</title>
<ellipse fill="none" stroke="black" cx="23.4382" cy="-1292.26" rx="19.3871" ry="19.3871"/>
<ellipse fill="none" stroke="black" cx="23.4382" cy="-1292.26" rx="23.3766" ry="23.3766"/>
<text text-anchor="middle" x="23.4382" y="-1288.06" font-family="Times,serif" font-size="14.00">IN</text>
</g>
<!-- n202 -->
<g id="node2" class="node"><title>n202</title>
<ellipse fill="none" stroke="black" cx="135.214" cy="-2354.26" rx="52.1762" ry="52.1762"/>
<text text-anchor="middle" x="135.214" y="-2350.06" font-family="Times,serif" font-size="14.00">female_title</text>
</g>
<!-- n192&#45;&gt;n202 -->
<g id="edge1" class="edge"><title>n192&#45;&gt;n202</title>
<path fill="none" stroke="black" d="M26.859,-1315.67C40.3795,-1446.47 106.698,-2088.06 127.773,-2291.94"/>
<polygon fill="black" stroke="black" points="124.321,-2292.58 128.83,-2302.17 131.284,-2291.86 124.321,-2292.58"/>
</g>
<!-- n2966 -->
<g id="node3" class="node"><title>n2966</title>
<ellipse fill="none" stroke="black" cx="263.618" cy="-857.255" rx="34.3267" ry="34.3267"/>
<text text-anchor="middle" x="263.618" y="-853.055" font-family="Times,serif" font-size="14.00">female</text>
</g>
<!-- n192&#45;&gt;n2966 -->
<g id="edge2" class="edge"><title>n192&#45;&gt;n2966</title>
<path fill="none" stroke="black" d="M35.6067,-1271.86C72.7364,-1204.05 192.453,-985.4 241.432,-895.948"/>
<polygon fill="black" stroke="black" points="244.627,-897.401 246.36,-886.948 238.487,-894.039 244.627,-897.401"/>
</g>
<!-- n3473 -->
<g id="node4" class="node"><title>n3473</title>
<ellipse fill="none" stroke="black" cx="478.173" cy="-3700.26" rx="30.9793" ry="30.9793"/>
<text text-anchor="middle" x="478.173" y="-3696.06" font-family="Times,serif" font-size="14.00">initial</text>
</g>
<!-- n192&#45;&gt;n3473 -->
<g id="edge3" class="edge"><title>n192&#45;&gt;n3473</title>
<path fill="none" stroke="black" d="M24.997,-1316.01C27.9297,-1434.66 42.9546,-1974.87 82.8765,-2415.26 126.816,-2899.97 -17.0768,-3078.2 223.552,-3501.26 274.534,-3590.89 383.5,-3654.58 440.58,-3683.24"/>
<polygon fill="black" stroke="black" points="439.096,-3686.41 449.612,-3687.7 442.195,-3680.14 439.096,-3686.41"/>
</g>
<!-- n3494 -->
<g id="node5" class="node"><title>n3494</title>
<ellipse fill="none" stroke="black" cx="588.401" cy="-1444.26" rx="34.3267" ry="34.3267"/>
<text text-anchor="middle" x="588.401" y="-1440.06" font-family="Times,serif" font-size="14.00">female</text>
</g>
<!-- n192&#45;&gt;n3494 -->
<g id="edge4" class="edge"><title>n192&#45;&gt;n3494</title>
<path fill="none" stroke="black" d="M42.4179,-1306.15C80.6642,-1334.26 173.866,-1395.26 262.618,-1395.26 262.618,-1395.26 262.618,-1395.26 374.847,-1395.26 435.849,-1395.26 504.241,-1414.66 546.569,-1429.04"/>
<polygon fill="black" stroke="black" points="545.635,-1432.42 556.23,-1432.39 547.929,-1425.81 545.635,-1432.42"/>
</g>
<!-- n3500 -->
<g id="node6" class="node"><title>n3500</title>
<ellipse fill="none" stroke="black" cx="588.401" cy="-1317.26" rx="40.1317" ry="40.1317"/>
<text text-anchor="middle" x="588.401" y="-1313.06" font-family="Times,serif" font-size="14.00">surname</text>
</g>
<!-- n192&#45;&gt;n3500 -->
<g id="edge5" class="edge"><title>n192&#45;&gt;n3500</title>
<path fill="none" stroke="black" d="M46.6858,-1296.16C88.7272,-1303.19 182.789,-1317.26 262.618,-1317.26 262.618,-1317.26 262.618,-1317.26 374.847,-1317.26 430.756,-1317.26 494.937,-1317.26 538.017,-1317.26"/>
<polygon fill="black" stroke="black" points="538.226,-1320.76 548.226,-1317.26 538.226,-1313.76 538.226,-1320.76"/>
</g>
<!-- n3761 -->
<g id="node7" class="node"><title>n3761</title>
<ellipse fill="none" stroke="black" cx="135.214" cy="-908.255" rx="34.344" ry="34.344"/>
<text text-anchor="middle" x="135.214" y="-904.055" font-family="Times,serif" font-size="14.00">epithet</text>
</g>
<!-- n192&#45;&gt;n3761 -->
<g id="edge6" class="edge"><title>n192&#45;&gt;n3761</title>
<path fill="none" stroke="black" d="M30.8147,-1269.95C48.5434,-1207.93 98.6474,-1032.67 121.979,-951.056"/>
<polygon fill="black" stroke="black" points="125.437,-951.691 124.821,-941.114 118.707,-949.767 125.437,-951.691"/>
</g>
<!-- n3763 -->
<g id="node8" class="node"><title>n3763</title>
<ellipse fill="none" stroke="black" cx="263.618" cy="-425.255" rx="40.1317" ry="40.1317"/>
<text text-anchor="middle" x="263.618" y="-421.055" font-family="Times,serif" font-size="14.00">surname</text>
</g>
<!-- n192&#45;&gt;n3763 -->
<g id="edge7" class="edge"><title>n192&#45;&gt;n3763</title>
<path fill="none" stroke="black" d="M25.5811,-1268.7C29.1865,-1203.51 42.5788,-1015.58 82.8765,-865.255 123.118,-715.14 201.437,-547.746 240.023,-469.752"/>
<polygon fill="black" stroke="black" points="243.21,-471.204 244.527,-460.691 236.942,-468.089 243.21,-471.204"/>
</g>
<!-- n3482 -->
<g id="node9" class="node"><title>n3482</title>
<ellipse fill="none" stroke="black" cx="373.847" cy="-1255.26" rx="34.3267" ry="34.3267"/>
<text text-anchor="middle" x="373.847" y="-1251.06" font-family="Times,serif" font-size="14.00">female</text>
</g>
<!-- n192&#45;&gt;n3482 -->
<g id="edge8" class="edge"><title>n192&#45;&gt;n3482</title>
<path fill="none" stroke="black" d="M46.7628,-1289.88C103.638,-1283.84 254.764,-1267.8 329.606,-1259.85"/>
<polygon fill="black" stroke="black" points="330.068,-1263.32 339.643,-1258.78 329.329,-1256.36 330.068,-1263.32"/>
</g>
<!-- n1043 -->
<g id="node10" class="node"><title>n1043</title>
<ellipse fill="none" stroke="black" cx="263.618" cy="-3063.26" rx="34.3267" ry="34.3267"/>
<text text-anchor="middle" x="263.618" y="-3059.06" font-family="Times,serif" font-size="14.00">female</text>
</g>
<!-- n202&#45;&gt;n1043 -->
<g id="edge9" class="edge"><title>n202&#45;&gt;n1043</title>
<path fill="none" stroke="black" d="M145.407,-2405.82C169.251,-2539.56 232.764,-2895.81 254.889,-3019.9"/>
<polygon fill="black" stroke="black" points="251.454,-3020.58 256.655,-3029.81 258.345,-3019.35 251.454,-3020.58"/>
</g>
<!-- n1275 -->
<g id="node11" class="node"><title>n1275</title>
<ellipse fill="none" stroke="black" cx="478.173" cy="-1646.26" rx="30.9793" ry="30.9793"/>
<text text-anchor="middle" x="478.173" y="-1642.06" font-family="Times,serif" font-size="14.00">initial</text>
</g>
<!-- n202&#45;&gt;n1275 -->
<g id="edge10" class="edge"><title>n202&#45;&gt;n1275</title>
<path fill="none" stroke="black" d="M143.652,-2302.54C154.988,-2231.78 180.003,-2101.79 223.552,-1998.26 261.484,-1908.07 282.424,-1890.58 339.684,-1811.26 375.192,-1762.06 421.105,-1708.75 449.852,-1676.42"/>
<polygon fill="black" stroke="black" points="452.723,-1678.46 456.774,-1668.67 447.502,-1673.8 452.723,-1678.46"/>
</g>
<!-- n1314 -->
<g id="node12" class="node"><title>n1314</title>
<ellipse fill="none" stroke="black" cx="588.401" cy="-2696.26" rx="34.3267" ry="34.3267"/>
<text text-anchor="middle" x="588.401" y="-2692.06" font-family="Times,serif" font-size="14.00">female</text>
</g>
<!-- n202&#45;&gt;n1314 -->
<g id="edge11" class="edge"><title>n202&#45;&gt;n1314</title>
<path fill="none" stroke="black" d="M177.45,-2385.51C265.573,-2452.31 470.873,-2607.93 552.769,-2670"/>
<polygon fill="black" stroke="black" points="550.676,-2672.81 560.76,-2676.06 554.905,-2667.23 550.676,-2672.81"/>
</g>
<!-- n1322 -->
<g id="node13" class="node"><title>n1322</title>
<ellipse fill="none" stroke="black" cx="588.401" cy="-3516.26" rx="40.1317" ry="40.1317"/>
<text text-anchor="middle" x="588.401" y="-3512.06" font-family="Times,serif" font-size="14.00">surname</text>
</g>
<!-- n202&#45;&gt;n1322 -->
<g id="edge12" class="edge"><title>n202&#45;&gt;n1322</title>
<path fill="none" stroke="black" d="M136.589,-2406.71C138.584,-2616.07 150.842,-3384.37 223.552,-3462.26 304.567,-3549.03 459.792,-3538.25 538.724,-3525.84"/>
<polygon fill="black" stroke="black" points="539.582,-3529.25 548.881,-3524.17 538.445,-3522.34 539.582,-3529.25"/>
</g>
<!-- n1426 -->
<g id="node14" class="node"><title>n1426</title>
<ellipse fill="none" stroke="black" cx="373.847" cy="-1854.26" rx="34.3267" ry="34.3267"/>
<text text-anchor="middle" x="373.847" y="-1850.06" font-family="Times,serif" font-size="14.00">female</text>
</g>
<!-- n202&#45;&gt;n1426 -->
<g id="edge13" class="edge"><title>n202&#45;&gt;n1426</title>
<path fill="none" stroke="black" d="M158.476,-2307.22C204.813,-2209.31 310.896,-1985.16 354.059,-1893.95"/>
<polygon fill="black" stroke="black" points="357.286,-1895.32 358.4,-1884.78 350.958,-1892.32 357.286,-1895.32"/>
</g>
<!-- n193 -->
<g id="node15" class="node"><title>n193</title>
<ellipse fill="none" stroke="black" cx="1129.87" cy="-848.255" rx="28.0917" ry="28.0917"/>
<ellipse fill="none" stroke="black" cx="1129.87" cy="-848.255" rx="32.0649" ry="32.0649"/>
<text text-anchor="middle" x="1129.87" y="-844.055" font-family="Times,serif" font-size="14.00">OUT</text>
</g>
<!-- n202&#45;&gt;n193 -->
<g id="edge14" class="edge"><title>n202&#45;&gt;n193</title>
<path fill="none" stroke="black" d="M174.407,-2389.33C179.714,-2396.07 184.416,-2403.47 187.552,-2411.26 232.848,-2523.65 208.639,-3381 223.552,-3501.26 260.405,-3798.42 73.4026,-4158.26 372.847,-4158.26 372.847,-4158.26 372.847,-4158.26 926.008,-4158.26 994.234,-4158.26 1025.82,-4144.36 1061.58,-4086.26 1105.5,-4014.89 1125.98,-1267.04 1128.58,-890.779"/>
<polygon fill="black" stroke="black" points="1132.08,-890.614 1128.65,-880.59 1125.08,-890.566 1132.08,-890.614"/>
</g>
<!-- n3599 -->
<g id="node16" class="node"><title>n3599</title>
<ellipse fill="none" stroke="black" cx="814.77" cy="-2221.26" rx="34.344" ry="34.344"/>
<text text-anchor="middle" x="814.77" y="-2217.06" font-family="Times,serif" font-size="14.00">epithet</text>
</g>
<!-- n202&#45;&gt;n3599 -->
<g id="edge15" class="edge"><title>n202&#45;&gt;n3599</title>
<path fill="none" stroke="black" d="M186.157,-2341.5C233.794,-2330.46 307.73,-2316.26 372.847,-2316.26 372.847,-2316.26 372.847,-2316.26 589.401,-2316.26 659.74,-2316.26 681.946,-2317.23 744.599,-2285.26 759.541,-2277.63 773.611,-2265.84 785.11,-2254.46"/>
<polygon fill="black" stroke="black" points="787.821,-2256.69 792.279,-2247.08 782.8,-2251.81 787.821,-2256.69"/>
</g>
<!-- n3610 -->
<g id="node17" class="node"><title>n3610</title>
<ellipse fill="none" stroke="black" cx="925.008" cy="-1800.26" rx="40.1317" ry="40.1317"/>
<text text-anchor="middle" x="925.008" y="-1796.06" font-family="Times,serif" font-size="14.00">surname</text>
</g>
<!-- n202&#45;&gt;n3610 -->
<g id="edge16" class="edge"><title>n202&#45;&gt;n3610</title>
<path fill="none" stroke="black" d="M174.283,-2389.38C179.604,-2396.11 184.343,-2403.5 187.552,-2411.26 246.702,-2554.15 188.043,-2955.74 223.552,-3106.26 261.633,-3267.68 206.995,-3448.26 372.847,-3448.26 372.847,-3448.26 372.847,-3448.26 589.401,-3448.26 658.893,-3448.26 691.999,-3474.67 744.599,-3429.26 790.302,-3389.8 743.304,-3345.74 780.599,-3298.26 802.065,-3270.92 830.559,-3289.75 848.942,-3260.26 886.992,-3199.21 916.527,-2100.94 922.781,-1850.71"/>
<polygon fill="black" stroke="black" points="926.286,-1850.54 923.036,-1840.46 919.289,-1850.37 926.286,-1850.54"/>
</g>
<!-- n2966&#45;&gt;n193 -->
<g id="edge21" class="edge"><title>n2966&#45;&gt;n193</title>
<path fill="none" stroke="black" d="M267.031,-822.978C278.126,-678.456 330.138,-126.255 477.173,-126.255 477.173,-126.255 477.173,-126.255 926.008,-126.255 987.721,-126.255 1020.66,-110.062 1061.58,-156.255 1104.73,-204.955 1122.92,-662.466 1127.59,-805.64"/>
<polygon fill="black" stroke="black" points="1124.1,-805.904 1127.92,-815.787 1131.09,-805.68 1124.1,-805.904"/>
</g>
<!-- n2966&#45;&gt;n3599 -->
<g id="edge22" class="edge"><title>n2966&#45;&gt;n3599</title>
<path fill="none" stroke="black" d="M265.831,-891.59C271.57,-1048.53 297.486,-1698.48 339.684,-1897.26 377.068,-2073.35 297.151,-2278.26 477.173,-2278.26 477.173,-2278.26 477.173,-2278.26 589.401,-2278.26 658.743,-2278.26 678.752,-2283.99 744.599,-2262.26 756.082,-2258.46 767.714,-2252.54 778.079,-2246.37"/>
<polygon fill="black" stroke="black" points="780.186,-2249.18 786.826,-2240.93 776.487,-2243.24 780.186,-2249.18"/>
</g>
<!-- n2966&#45;&gt;n3610 -->
<g id="edge23" class="edge"><title>n2966&#45;&gt;n3610</title>
<path fill="none" stroke="black" d="M270.779,-823.759C287.761,-743.013 343.174,-544.255 477.173,-544.255 477.173,-544.255 477.173,-544.255 589.401,-544.255 658.893,-544.255 691.278,-518.691 744.599,-563.255 864.906,-663.805 819.063,-746.336 848.942,-900.255 910.896,-1219.4 921.735,-1611.98 923.617,-1749.67"/>
<polygon fill="black" stroke="black" points="920.121,-1749.96 923.747,-1759.91 927.12,-1749.87 920.121,-1749.96"/>
</g>
<!-- n3101 -->
<g id="node18" class="node"><title>n3101</title>
<ellipse fill="none" stroke="black" cx="478.173" cy="-805.255" rx="30.9793" ry="30.9793"/>
<text text-anchor="middle" x="478.173" y="-801.055" font-family="Times,serif" font-size="14.00">initial</text>
</g>
<!-- n2966&#45;&gt;n3101 -->
<g id="edge17" class="edge"><title>n2966&#45;&gt;n3101</title>
<path fill="none" stroke="black" d="M296.9,-849.357C334.801,-840.085 397.625,-824.716 438.203,-814.789"/>
<polygon fill="black" stroke="black" points="439.13,-818.165 448.011,-812.389 437.466,-811.366 439.13,-818.165"/>
</g>
<!-- n3133 -->
<g id="node19" class="node"><title>n3133</title>
<ellipse fill="none" stroke="black" cx="588.401" cy="-1072.26" rx="34.3267" ry="34.3267"/>
<text text-anchor="middle" x="588.401" y="-1068.06" font-family="Times,serif" font-size="14.00">female</text>
</g>
<!-- n2966&#45;&gt;n3133 -->
<g id="edge18" class="edge"><title>n2966&#45;&gt;n3133</title>
<path fill="none" stroke="black" d="M287.159,-882.607C301.36,-897.75 320.568,-916.788 339.684,-931.255 407.891,-982.876 496.931,-1029.07 547.571,-1053.63"/>
<polygon fill="black" stroke="black" points="546.339,-1056.92 556.868,-1058.11 549.376,-1050.62 546.339,-1056.92"/>
</g>
<!-- n3139 -->
<g id="node20" class="node"><title>n3139</title>
<ellipse fill="none" stroke="black" cx="588.401" cy="-680.255" rx="40.1317" ry="40.1317"/>
<text text-anchor="middle" x="588.401" y="-676.055" font-family="Times,serif" font-size="14.00">surname</text>
</g>
<!-- n2966&#45;&gt;n3139 -->
<g id="edge19" class="edge"><title>n2966&#45;&gt;n3139</title>
<path fill="none" stroke="black" d="M293.832,-841.235C350.747,-810.026 476.754,-740.929 543.668,-704.236"/>
<polygon fill="black" stroke="black" points="545.619,-707.158 552.705,-699.281 542.253,-701.02 545.619,-707.158"/>
</g>
<!-- n3153 -->
<g id="node21" class="node"><title>n3153</title>
<ellipse fill="none" stroke="black" cx="373.847" cy="-888.255" rx="34.3267" ry="34.3267"/>
<text text-anchor="middle" x="373.847" y="-884.055" font-family="Times,serif" font-size="14.00">female</text>
</g>
<!-- n2966&#45;&gt;n3153 -->
<g id="edge20" class="edge"><title>n2966&#45;&gt;n3153</title>
<path fill="none" stroke="black" d="M296.797,-866.472C307.496,-869.537 319.572,-872.996 330.898,-876.24"/>
<polygon fill="black" stroke="black" points="330.027,-879.631 340.605,-879.02 331.955,-872.902 330.027,-879.631"/>
</g>
<!-- n3473&#45;&gt;n193 -->
<g id="edge25" class="edge"><title>n3473&#45;&gt;n193</title>
<path fill="none" stroke="black" d="M482.408,-3730.87C493.84,-3821.52 540.864,-4082.26 703.533,-4082.26 703.533,-4082.26 703.533,-4082.26 926.008,-4082.26 950.576,-4082.26 1031.3,-4050.86 1061.58,-3997.26 1101.63,-3926.37 1125.4,-1260.86 1128.52,-890.735"/>
<polygon fill="black" stroke="black" points="1132.02,-890.731 1128.6,-880.702 1125.02,-890.672 1132.02,-890.731"/>
</g>
<!-- n3473&#45;&gt;n3599 -->
<g id="edge26" class="edge"><title>n3473&#45;&gt;n3599</title>
<path fill="none" stroke="black" d="M482.608,-3669.37C489.212,-3609.06 503.781,-3471.37 512.335,-3355.26 523.811,-3199.47 505.287,-2803.41 548.335,-2653.26 577.621,-2551.1 591.254,-2521.28 664.467,-2444.26 693.389,-2413.83 719.607,-2427.98 744.599,-2394.26 781.312,-2344.71 751.923,-2314.85 780.599,-2260.26 781.673,-2258.21 782.872,-2256.18 784.158,-2254.18"/>
<polygon fill="black" stroke="black" points="787.276,-2255.83 790.246,-2245.66 781.582,-2251.76 787.276,-2255.83"/>
</g>
<!-- n3473&#45;&gt;n3610 -->
<g id="edge27" class="edge"><title>n3473&#45;&gt;n3610</title>
<path fill="none" stroke="black" d="M504.592,-3684.25C517.442,-3676.5 533.434,-3667.36 548.335,-3660.26 632.634,-3620.09 684.052,-3656.35 744.599,-3585.26 795.521,-3525.47 734.06,-3475.52 780.599,-3412.26 801.193,-3384.26 830.613,-3403.78 848.942,-3374.26 890.031,-3308.06 917.441,-2112.91 922.974,-1850.79"/>
<polygon fill="black" stroke="black" points="926.481,-1850.51 923.192,-1840.44 919.482,-1850.36 926.481,-1850.51"/>
</g>
<!-- n3474 -->
<g id="node22" class="node"><title>n3474</title>
<ellipse fill="none" stroke="black" cx="588.401" cy="-3700.26" rx="30.9793" ry="30.9793"/>
<text text-anchor="middle" x="588.401" y="-3696.06" font-family="Times,serif" font-size="14.00">initial</text>
</g>
<!-- n3473&#45;&gt;n3474 -->
<g id="edge24" class="edge"><title>n3473&#45;&gt;n3474</title>
<path fill="none" stroke="black" d="M509.033,-3700.26C520.862,-3700.26 534.641,-3700.26 547.317,-3700.26"/>
<polygon fill="black" stroke="black" points="547.638,-3703.76 557.638,-3700.26 547.638,-3696.76 547.638,-3703.76"/>
</g>
<!-- n3494&#45;&gt;n193 -->
<g id="edge29" class="edge"><title>n3494&#45;&gt;n193</title>
<path fill="none" stroke="black" d="M607.323,-1415.78C615.349,-1401.48 623.998,-1383.56 628.467,-1366.26 652.771,-1272.15 599.921,-564.921 664.467,-492.255 709.1,-442.007 746.561,-468.255 813.77,-468.255 813.77,-468.255 813.77,-468.255 926.008,-468.255 987.2,-468.255 1018.06,-449.237 1061.58,-492.255 1105.44,-535.605 1121.58,-721.385 1126.74,-805.989"/>
<polygon fill="black" stroke="black" points="1123.25,-806.252 1127.33,-816.03 1130.24,-805.842 1123.25,-806.252"/>
</g>
<!-- n3494&#45;&gt;n3599 -->
<g id="edge30" class="edge"><title>n3494&#45;&gt;n3599</title>
<path fill="none" stroke="black" d="M598.869,-1476.84C607.928,-1509.33 621.25,-1560.82 628.467,-1606.26 644.484,-1707.08 606.551,-1980.18 664.467,-2064.26 686.827,-2096.71 715.586,-2075.57 744.599,-2102.26 767.994,-2123.77 785.751,-2155.05 797.414,-2180.14"/>
<polygon fill="black" stroke="black" points="794.293,-2181.74 801.584,-2189.42 800.678,-2178.87 794.293,-2181.74"/>
</g>
<!-- n3494&#45;&gt;n3610 -->
<g id="edge31" class="edge"><title>n3494&#45;&gt;n3610</title>
<path fill="none" stroke="black" d="M622.84,-1442.08C679.429,-1440.45 793.336,-1446.39 848.942,-1514.26 904.763,-1582.38 919.478,-1687.66 923.113,-1749.68"/>
<polygon fill="black" stroke="black" points="919.634,-1750.19 923.639,-1760 926.625,-1749.83 919.634,-1750.19"/>
</g>
<!-- n3495 -->
<g id="node23" class="node"><title>n3495</title>
<ellipse fill="none" stroke="black" cx="704.533" cy="-1506.26" rx="34.3267" ry="34.3267"/>
<text text-anchor="middle" x="704.533" y="-1502.06" font-family="Times,serif" font-size="14.00">female</text>
</g>
<!-- n3494&#45;&gt;n3495 -->
<g id="edge28" class="edge"><title>n3494&#45;&gt;n3495</title>
<path fill="none" stroke="black" d="M618.793,-1460.22C632.904,-1467.89 649.995,-1477.17 665.121,-1485.39"/>
<polygon fill="black" stroke="black" points="663.783,-1488.64 674.241,-1490.34 667.124,-1482.49 663.783,-1488.64"/>
</g>
<!-- n3500&#45;&gt;n193 -->
<g id="edge33" class="edge"><title>n3500&#45;&gt;n193</title>
<path fill="none" stroke="black" d="M614.484,-1286.7C620.093,-1278.29 625.31,-1268.82 628.467,-1259.26 656.523,-1174.23 604.89,-521.09 664.467,-454.255 709.189,-404.086 746.561,-430.255 813.77,-430.255 813.77,-430.255 813.77,-430.255 926.008,-430.255 987.2,-430.255 1018.45,-410.854 1061.58,-454.255 1110.28,-503.245 1123.93,-714.307 1127.59,-805.745"/>
<polygon fill="black" stroke="black" points="1124.09,-805.908 1127.97,-815.768 1131.09,-805.642 1124.09,-805.908"/>
</g>
<!-- n3500&#45;&gt;n3599 -->
<g id="edge34" class="edge"><title>n3500&#45;&gt;n3599</title>
<path fill="none" stroke="black" d="M609.021,-1351.72C616.474,-1366.5 624.191,-1384.25 628.467,-1401.26 645.435,-1468.71 625.607,-1968.56 664.467,-2026.26 686.487,-2058.95 717.118,-2036 744.599,-2064.26 775.407,-2095.93 793.738,-2143.62 803.706,-2178.13"/>
<polygon fill="black" stroke="black" points="800.379,-2179.22 806.418,-2187.93 807.126,-2177.36 800.379,-2179.22"/>
</g>
<!-- n3500&#45;&gt;n3610 -->
<g id="edge35" class="edge"><title>n3500&#45;&gt;n3610</title>
<path fill="none" stroke="black" d="M628.622,-1313.92C688.131,-1311.33 799.521,-1316.7 848.942,-1386.26 890.071,-1444.14 912.024,-1652.88 920.206,-1749.96"/>
<polygon fill="black" stroke="black" points="916.733,-1750.43 921.046,-1760.11 923.709,-1749.86 916.733,-1750.43"/>
</g>
<!-- n3501 -->
<g id="node24" class="node"><title>n3501</title>
<ellipse fill="none" stroke="black" cx="704.533" cy="-1376.26" rx="40.1317" ry="40.1317"/>
<text text-anchor="middle" x="704.533" y="-1372.06" font-family="Times,serif" font-size="14.00">surname</text>
</g>
<!-- n3500&#45;&gt;n3501 -->
<g id="edge32" class="edge"><title>n3500&#45;&gt;n3501</title>
<path fill="none" stroke="black" d="M624.265,-1335.28C635.334,-1341 647.724,-1347.4 659.36,-1353.42"/>
<polygon fill="black" stroke="black" points="657.999,-1356.66 668.49,-1358.14 661.214,-1350.44 657.999,-1356.66"/>
</g>
<!-- n3761&#45;&gt;n3763 -->
<g id="edge36" class="edge"><title>n3761&#45;&gt;n3763</title>
<path fill="none" stroke="black" d="M144.803,-875.436C166.614,-792.095 224.227,-571.951 249.928,-473.744"/>
<polygon fill="black" stroke="black" points="253.315,-474.628 252.46,-464.068 246.543,-472.856 253.315,-474.628"/>
</g>
<!-- n3763&#45;&gt;n193 -->
<g id="edge38" class="edge"><title>n3763&#45;&gt;n193</title>
<path fill="none" stroke="black" d="M267.773,-385.044C273.78,-331.699 290.989,-236.874 339.684,-173.255 383.349,-116.207 405.332,-88.2551 477.173,-88.2551 477.173,-88.2551 477.173,-88.2551 926.008,-88.2551 987.919,-88.2551 1020.97,-73.5297 1061.58,-120.255 1106.72,-172.174 1123.66,-658.261 1127.79,-805.92"/>
<polygon fill="black" stroke="black" points="1124.29,-806.055 1128.07,-815.955 1131.29,-805.863 1124.29,-806.055"/>
</g>
<!-- n3767 -->
<g id="node25" class="node"><title>n3767</title>
<ellipse fill="none" stroke="black" cx="814.77" cy="-30.2551" rx="30.0121" ry="30.0121"/>
<text text-anchor="middle" x="814.77" y="-26.0551" font-family="Times,serif" font-size="14.00">suffix</text>
</g>
<!-- n3763&#45;&gt;n3767 -->
<g id="edge37" class="edge"><title>n3763&#45;&gt;n3767</title>
<path fill="none" stroke="black" d="M267.907,-385.256C275.491,-302.898 296.921,-118.397 339.684,-74.2551 383.482,-29.0442 414.226,-40.2551 477.173,-40.2551 477.173,-40.2551 477.173,-40.2551 589.401,-40.2551 654.197,-40.2551 729.413,-36.0413 774.219,-33.0844"/>
<polygon fill="black" stroke="black" points="774.645,-36.5638 784.387,-32.4003 774.175,-29.5796 774.645,-36.5638"/>
</g>
<!-- n3483 -->
<g id="node26" class="node"><title>n3483</title>
<ellipse fill="none" stroke="black" cx="478.173" cy="-1255.26" rx="34.3267" ry="34.3267"/>
<text text-anchor="middle" x="478.173" y="-1251.06" font-family="Times,serif" font-size="14.00">female</text>
</g>
<!-- n3482&#45;&gt;n3483 -->
<g id="edge39" class="edge"><title>n3482&#45;&gt;n3483</title>
<path fill="none" stroke="black" d="M408.069,-1255.26C416.201,-1255.26 425.024,-1255.26 433.561,-1255.26"/>
<polygon fill="black" stroke="black" points="433.767,-1258.76 443.767,-1255.26 433.767,-1251.76 433.767,-1258.76"/>
</g>
<!-- n3488 -->
<g id="node27" class="node"><title>n3488</title>
<ellipse fill="none" stroke="black" cx="588.401" cy="-1210.26" rx="40.1317" ry="40.1317"/>
<text text-anchor="middle" x="588.401" y="-1206.06" font-family="Times,serif" font-size="14.00">surname</text>
</g>
<!-- n3482&#45;&gt;n3488 -->
<g id="edge40" class="edge"><title>n3482&#45;&gt;n3488</title>
<path fill="none" stroke="black" d="M401.127,-1234.2C413.405,-1225.65 428.677,-1216.75 444.01,-1212.26 474.545,-1203.31 510.33,-1202.79 538.512,-1204.53"/>
<polygon fill="black" stroke="black" points="538.3,-1208.02 548.528,-1205.25 538.808,-1201.04 538.3,-1208.02"/>
</g>
<!-- n1043&#45;&gt;n193 -->
<g id="edge45" class="edge"><title>n1043&#45;&gt;n193</title>
<path fill="none" stroke="black" d="M264.042,-3097.52C261.888,-3279.07 263.436,-4120.26 477.173,-4120.26 477.173,-4120.26 477.173,-4120.26 926.008,-4120.26 996.199,-4120.26 1026.3,-4099.93 1061.58,-4039.26 1103.07,-3967.9 1125.63,-1263.62 1128.54,-890.726"/>
<polygon fill="black" stroke="black" points="1132.04,-890.65 1128.62,-880.623 1125.04,-890.596 1132.04,-890.65"/>
</g>
<!-- n1043&#45;&gt;n3599 -->
<g id="edge46" class="edge"><title>n1043&#45;&gt;n3599</title>
<path fill="none" stroke="black" d="M268.136,-3029.06C281.516,-2917.46 339.561,-2560.81 548.335,-2383.26 617.163,-2324.72 674.33,-2387.05 744.599,-2330.26 771.807,-2308.26 761.137,-2289.33 780.599,-2260.26 781.884,-2258.33 783.251,-2256.4 784.669,-2254.48"/>
<polygon fill="black" stroke="black" points="787.744,-2256.23 791.122,-2246.18 782.219,-2251.93 787.744,-2256.23"/>
</g>
<!-- n1043&#45;&gt;n3610 -->
<g id="edge47" class="edge"><title>n1043&#45;&gt;n3610</title>
<path fill="none" stroke="black" d="M278.7,-3032.56C307.296,-2975.38 377.969,-2858.26 477.173,-2858.26 477.173,-2858.26 477.173,-2858.26 705.533,-2858.26 756.54,-2858.26 831.385,-2786.98 848.942,-2753.26 890.808,-2672.85 915.891,-2035.48 922.342,-1850.45"/>
<polygon fill="black" stroke="black" points="925.84,-1850.56 922.688,-1840.45 918.844,-1850.32 925.84,-1850.56"/>
</g>
<!-- n1581 -->
<g id="node28" class="node"><title>n1581</title>
<ellipse fill="none" stroke="black" cx="478.173" cy="-3014.26" rx="30.9793" ry="30.9793"/>
<text text-anchor="middle" x="478.173" y="-3010.06" font-family="Times,serif" font-size="14.00">initial</text>
</g>
<!-- n1043&#45;&gt;n1581 -->
<g id="edge41" class="edge"><title>n1043&#45;&gt;n1581</title>
<path fill="none" stroke="black" d="M297.364,-3055.71C335.367,-3046.95 397.975,-3032.51 438.382,-3023.2"/>
<polygon fill="black" stroke="black" points="439.19,-3026.6 448.148,-3020.95 437.618,-3019.78 439.19,-3026.6"/>
</g>
<!-- n1634 -->
<g id="node29" class="node"><title>n1634</title>
<ellipse fill="none" stroke="black" cx="588.401" cy="-3188.26" rx="34.3267" ry="34.3267"/>
<text text-anchor="middle" x="588.401" y="-3184.06" font-family="Times,serif" font-size="14.00">female</text>
</g>
<!-- n1043&#45;&gt;n1634 -->
<g id="edge42" class="edge"><title>n1043&#45;&gt;n1634</title>
<path fill="none" stroke="black" d="M295.861,-3075.35C354.552,-3098.08 481.237,-3147.14 546.58,-3172.45"/>
<polygon fill="black" stroke="black" points="545.552,-3175.8 556.141,-3176.15 548.08,-3169.27 545.552,-3175.8"/>
</g>
<!-- n1646 -->
<g id="node30" class="node"><title>n1646</title>
<ellipse fill="none" stroke="black" cx="588.401" cy="-3082.26" rx="40.1317" ry="40.1317"/>
<text text-anchor="middle" x="588.401" y="-3078.06" font-family="Times,serif" font-size="14.00">surname</text>
</g>
<!-- n1043&#45;&gt;n1646 -->
<g id="edge43" class="edge"><title>n1043&#45;&gt;n1646</title>
<path fill="none" stroke="black" d="M297.946,-3065.22C354.976,-3068.57 471.549,-3075.44 538.043,-3079.35"/>
<polygon fill="black" stroke="black" points="538.079,-3082.86 548.268,-3079.95 538.491,-3075.87 538.079,-3082.86"/>
</g>
<!-- n1686 -->
<g id="node31" class="node"><title>n1686</title>
<ellipse fill="none" stroke="black" cx="373.847" cy="-3250.26" rx="34.3267" ry="34.3267"/>
<text text-anchor="middle" x="373.847" y="-3246.06" font-family="Times,serif" font-size="14.00">female</text>
</g>
<!-- n1043&#45;&gt;n1686 -->
<g id="edge44" class="edge"><title>n1043&#45;&gt;n1686</title>
<path fill="none" stroke="black" d="M281.529,-3092.47C300.139,-3124.63 330.127,-3176.44 350.624,-3211.86"/>
<polygon fill="black" stroke="black" points="347.838,-3214.03 355.876,-3220.93 353.896,-3210.53 347.838,-3214.03"/>
</g>
<!-- n1275&#45;&gt;n193 -->
<g id="edge49" class="edge"><title>n1275&#45;&gt;n193</title>
<path fill="none" stroke="black" d="M482.525,-1615.57C489.048,-1554.98 503.576,-1415.67 512.335,-1298.26 534.422,-1002.2 498.526,-923.923 548.335,-631.255 550.272,-619.875 655.966,-240.063 664.467,-232.255 714.315,-186.471 746.087,-202.255 813.77,-202.255 813.77,-202.255 813.77,-202.255 926.008,-202.255 987.919,-202.255 1020.57,-187.876 1061.58,-234.255 1099.41,-277.028 1120.87,-673.616 1127.01,-805.693"/>
<polygon fill="black" stroke="black" points="1123.52,-806 1127.47,-815.829 1130.51,-805.679 1123.52,-806"/>
</g>
<!-- n1275&#45;&gt;n3599 -->
<g id="edge50" class="edge"><title>n1275&#45;&gt;n3599</title>
<path fill="none" stroke="black" d="M490.303,-1674.64C497.817,-1695.06 507.26,-1723.45 512.335,-1749.26 522.379,-1800.32 510.482,-2180.54 548.335,-2216.26 608.389,-2272.92 714.368,-2252.73 772.595,-2235.5"/>
<polygon fill="black" stroke="black" points="773.668,-2238.83 782.203,-2232.55 771.616,-2232.14 773.668,-2238.83"/>
</g>
<!-- n1275&#45;&gt;n3610 -->
<g id="edge51" class="edge"><title>n1275&#45;&gt;n3610</title>
<path fill="none" stroke="black" d="M503.38,-1628.04C516.057,-1619.63 532.259,-1610.57 548.335,-1606.26 677.818,-1571.51 741.279,-1551.37 848.942,-1631.26 887.164,-1659.62 906.291,-1711.81 915.621,-1750.71"/>
<polygon fill="black" stroke="black" points="912.281,-1751.81 917.894,-1760.8 919.11,-1750.28 912.281,-1751.81"/>
</g>
<!-- n1418 -->
<g id="node32" class="node"><title>n1418</title>
<ellipse fill="none" stroke="black" cx="588.401" cy="-1646.26" rx="30.9793" ry="30.9793"/>
<text text-anchor="middle" x="588.401" y="-1642.06" font-family="Times,serif" font-size="14.00">initial</text>
</g>
<!-- n1275&#45;&gt;n1418 -->
<g id="edge48" class="edge"><title>n1275&#45;&gt;n1418</title>
<path fill="none" stroke="black" d="M509.033,-1646.26C520.862,-1646.26 534.641,-1646.26 547.317,-1646.26"/>
<polygon fill="black" stroke="black" points="547.638,-1649.76 557.638,-1646.26 547.638,-1642.76 547.638,-1649.76"/>
</g>
<!-- n1314&#45;&gt;n193 -->
<g id="edge53" class="edge"><title>n1314&#45;&gt;n193</title>
<path fill="none" stroke="black" d="M596.754,-2729.45C605.889,-2772.18 621.16,-2848.84 628.467,-2915.26 633.599,-2961.91 632.703,-3724.71 664.467,-3759.26 709.74,-3808.5 746.878,-3778.26 813.77,-3778.26 813.77,-3778.26 813.77,-3778.26 926.008,-3778.26 1247.26,-3778.26 1026.48,-3387.59 1061.58,-3068.26 1110.49,-2623.36 1126.03,-1159.76 1128.5,-890.891"/>
<polygon fill="black" stroke="black" points="1132,-890.792 1128.59,-880.76 1125,-890.728 1132,-890.792"/>
</g>
<!-- n1314&#45;&gt;n3599 -->
<g id="edge54" class="edge"><title>n1314&#45;&gt;n3599</title>
<path fill="none" stroke="black" d="M594.678,-2662.44C602.952,-2618.89 622.576,-2542.82 664.467,-2492.26 690.952,-2460.29 718.951,-2476.9 744.599,-2444.26 786.01,-2391.55 802.784,-2313.88 809.471,-2265.5"/>
<polygon fill="black" stroke="black" points="812.973,-2265.71 810.786,-2255.34 806.031,-2264.81 812.973,-2265.71"/>
</g>
<!-- n1314&#45;&gt;n3610 -->
<g id="edge55" class="edge"><title>n1314&#45;&gt;n3610</title>
<path fill="none" stroke="black" d="M610.617,-2670.29C642.12,-2631.06 702.109,-2553.63 744.599,-2482.26 799.542,-2389.95 816.85,-2366.76 848.942,-2264.26 894.744,-2117.96 913.747,-1936.5 920.619,-1850.28"/>
<polygon fill="black" stroke="black" points="924.113,-1850.48 921.398,-1840.24 917.134,-1849.94 924.113,-1850.48"/>
</g>
<!-- n1455 -->
<g id="node33" class="node"><title>n1455</title>
<ellipse fill="none" stroke="black" cx="704.533" cy="-2796.26" rx="34.3267" ry="34.3267"/>
<text text-anchor="middle" x="704.533" y="-2792.06" font-family="Times,serif" font-size="14.00">female</text>
</g>
<!-- n1314&#45;&gt;n1455 -->
<g id="edge52" class="edge"><title>n1314&#45;&gt;n1455</title>
<path fill="none" stroke="black" d="M614.731,-2718.45C631.132,-2732.82 652.663,-2751.68 670.415,-2767.24"/>
<polygon fill="black" stroke="black" points="668.446,-2770.17 678.274,-2774.12 673.059,-2764.9 668.446,-2770.17"/>
</g>
<!-- n1322&#45;&gt;n193 -->
<g id="edge57" class="edge"><title>n1322&#45;&gt;n193</title>
<path fill="none" stroke="black" d="M601.194,-3554.44C609.749,-3583.28 621.072,-3623.96 628.467,-3660.26 640.156,-3717.63 626.684,-3876.53 664.467,-3921.26 709.36,-3974.4 744.203,-3968.26 813.77,-3968.26 813.77,-3968.26 813.77,-3968.26 926.008,-3968.26 965.028,-3968.26 1038.84,-3910.65 1061.58,-3863.26 1128.83,-3723.14 1129.21,-1248.56 1128.92,-891.138"/>
<polygon fill="black" stroke="black" points="1132.42,-890.947 1128.91,-880.95 1125.42,-890.953 1132.42,-890.947"/>
</g>
<!-- n1322&#45;&gt;n3599 -->
<g id="edge58" class="edge"><title>n1322&#45;&gt;n3599</title>
<path fill="none" stroke="black" d="M601.176,-3478.13C610.262,-3447.01 622.289,-3401.72 628.467,-3361.26 649.999,-3220.22 608.503,-2851.49 664.467,-2720.26 684.96,-2672.2 721.498,-2681.11 744.599,-2634.26 805.436,-2510.85 814.126,-2344.19 814.523,-2265.67"/>
<polygon fill="black" stroke="black" points="818.022,-2265.65 814.53,-2255.64 811.022,-2265.64 818.022,-2265.65"/>
</g>
<!-- n1322&#45;&gt;n3610 -->
<g id="edge59" class="edge"><title>n1322&#45;&gt;n3610</title>
<path fill="none" stroke="black" d="M620.016,-3541.2C653.85,-3565.57 708.342,-3595.01 744.599,-3565.26 808.001,-3513.22 735.827,-3452.98 780.599,-3384.26 800.86,-3353.15 831.027,-3368.76 848.942,-3336.26 921.986,-3203.71 924.526,-2100.98 924.152,-1850.66"/>
<polygon fill="black" stroke="black" points="927.652,-1850.4 924.135,-1840.41 920.652,-1850.41 927.652,-1850.4"/>
</g>
<!-- n1462 -->
<g id="node34" class="node"><title>n1462</title>
<ellipse fill="none" stroke="black" cx="704.533" cy="-3516.26" rx="40.1317" ry="40.1317"/>
<text text-anchor="middle" x="704.533" y="-3512.06" font-family="Times,serif" font-size="14.00">surname</text>
</g>
<!-- n1322&#45;&gt;n1462 -->
<g id="edge56" class="edge"><title>n1322&#45;&gt;n1462</title>
<path fill="none" stroke="black" d="M628.679,-3516.26C636.839,-3516.26 645.538,-3516.26 654.011,-3516.26"/>
<polygon fill="black" stroke="black" points="654.183,-3519.76 664.183,-3516.26 654.183,-3512.76 654.183,-3519.76"/>
</g>
<!-- n1567 -->
<g id="node35" class="node"><title>n1567</title>
<ellipse fill="none" stroke="black" cx="478.173" cy="-1792.26" rx="34.3267" ry="34.3267"/>
<text text-anchor="middle" x="478.173" y="-1788.06" font-family="Times,serif" font-size="14.00">female</text>
</g>
<!-- n1426&#45;&gt;n1567 -->
<g id="edge60" class="edge"><title>n1426&#45;&gt;n1567</title>
<path fill="none" stroke="black" d="M403.35,-1836.98C414.566,-1830.19 427.601,-1822.29 439.57,-1815.04"/>
<polygon fill="black" stroke="black" points="441.728,-1817.82 448.467,-1809.65 438.101,-1811.84 441.728,-1817.82"/>
</g>
<!-- n1742 -->
<g id="node36" class="node"><title>n1742</title>
<ellipse fill="none" stroke="black" cx="588.401" cy="-1792.26" rx="40.1317" ry="40.1317"/>
<text text-anchor="middle" x="588.401" y="-1788.06" font-family="Times,serif" font-size="14.00">surname</text>
</g>
<!-- n1426&#45;&gt;n1742 -->
<g id="edge61" class="edge"><title>n1426&#45;&gt;n1742</title>
<path fill="none" stroke="black" d="M408.164,-1853.2C436.528,-1851.47 478.013,-1846.96 512.335,-1835.26 523.774,-1831.35 535.438,-1825.66 546.056,-1819.68"/>
<polygon fill="black" stroke="black" points="547.835,-1822.69 554.701,-1814.62 544.302,-1816.65 547.835,-1822.69"/>
</g>
<!-- n3599&#45;&gt;n3610 -->
<g id="edge62" class="edge"><title>n3599&#45;&gt;n3610</title>
<path fill="none" stroke="black" d="M824.263,-2188.22C843.271,-2114.29 889.309,-1935.22 911.559,-1848.68"/>
<polygon fill="black" stroke="black" points="914.986,-1849.4 914.087,-1838.84 908.207,-1847.66 914.986,-1849.4"/>
</g>
<!-- n3610&#45;&gt;n193 -->
<g id="edge64" class="edge"><title>n3610&#45;&gt;n193</title>
<path fill="none" stroke="black" d="M959.052,-1821.64C989.514,-1838.4 1034.05,-1854.96 1061.58,-1829.26 1131.01,-1764.43 1130.57,-1070.83 1129.27,-890.764"/>
<polygon fill="black" stroke="black" points="1132.77,-890.597 1129.2,-880.624 1125.77,-890.651 1132.77,-890.597"/>
</g>
<!-- n3630 -->
<g id="node37" class="node"><title>n3630</title>
<ellipse fill="none" stroke="black" cx="1031.33" cy="-1790.26" rx="30.0121" ry="30.0121"/>
<text text-anchor="middle" x="1031.33" y="-1786.06" font-family="Times,serif" font-size="14.00">suffix</text>
</g>
<!-- n3610&#45;&gt;n3630 -->
<g id="edge63" class="edge"><title>n3610&#45;&gt;n3630</title>
<path fill="none" stroke="black" d="M965.15,-1796.5C973.617,-1795.69 982.573,-1794.83 991.046,-1794.02"/>
<polygon fill="black" stroke="black" points="991.455,-1797.5 1001.08,-1793.06 990.787,-1790.53 991.455,-1797.5"/>
</g>
<!-- n3101&#45;&gt;n193 -->
<g id="edge66" class="edge"><title>n3101&#45;&gt;n193</title>
<path fill="none" stroke="black" d="M483.011,-774.77C499.884,-647.382 572.511,-164.255 703.533,-164.255 703.533,-164.255 703.533,-164.255 926.008,-164.255 987.2,-164.255 1019.94,-143.422 1061.58,-188.255 1103.65,-233.54 1122.48,-666.923 1127.46,-805.719"/>
<polygon fill="black" stroke="black" points="1123.97,-806.085 1127.82,-815.955 1130.97,-805.838 1123.97,-806.085"/>
</g>
<!-- n3101&#45;&gt;n3599 -->
<g id="edge67" class="edge"><title>n3101&#45;&gt;n3599</title>
<path fill="none" stroke="black" d="M500.999,-826.416C505.563,-832.077 509.765,-838.512 512.335,-845.255 591.221,-1052.21 507.814,-1623.52 548.335,-1841.26 577.32,-1997 549.602,-2069.15 664.467,-2178.26 692.88,-2205.24 737.127,-2215.45 770.087,-2219.23"/>
<polygon fill="black" stroke="black" points="770.061,-2222.74 780.357,-2220.24 770.749,-2215.78 770.061,-2222.74"/>
</g>
<!-- n3101&#45;&gt;n3610 -->
<g id="edge68" class="edge"><title>n3101&#45;&gt;n3610</title>
<path fill="none" stroke="black" d="M508.556,-810.342C576.771,-822.211 740.414,-851.047 744.599,-855.255 807.363,-918.363 728.735,-979.921 780.599,-1052.26 800.85,-1080.5 829.77,-1061.27 848.942,-1090.26 920.653,-1198.68 925.245,-1606.07 924.564,-1749.73"/>
<polygon fill="black" stroke="black" points="921.063,-1749.99 924.504,-1760.01 928.063,-1750.03 921.063,-1749.99"/>
</g>
<!-- n3147 -->
<g id="node38" class="node"><title>n3147</title>
<ellipse fill="none" stroke="black" cx="588.401" cy="-777.255" rx="30.9793" ry="30.9793"/>
<text text-anchor="middle" x="588.401" y="-773.055" font-family="Times,serif" font-size="14.00">initial</text>
</g>
<!-- n3101&#45;&gt;n3147 -->
<g id="edge65" class="edge"><title>n3101&#45;&gt;n3147</title>
<path fill="none" stroke="black" d="M508.176,-797.752C520.55,-794.55 535.175,-790.767 548.47,-787.327"/>
<polygon fill="black" stroke="black" points="549.513,-790.672 558.318,-784.779 547.76,-783.896 549.513,-790.672"/>
</g>
<!-- n3133&#45;&gt;n193 -->
<g id="edge70" class="edge"><title>n3133&#45;&gt;n193</title>
<path fill="none" stroke="black" d="M606.571,-1043.31C614.728,-1028.06 623.715,-1008.73 628.467,-990.255 645.43,-924.284 618.784,-428.783 664.467,-378.255 709.541,-328.401 746.561,-354.255 813.77,-354.255 813.77,-354.255 813.77,-354.255 926.008,-354.255 987.2,-354.255 1019.03,-334.277 1061.58,-378.255 1120.11,-438.75 1128.08,-701.865 1128.9,-805.797"/>
<polygon fill="black" stroke="black" points="1125.4,-805.949 1128.97,-815.927 1132.4,-805.906 1125.4,-805.949"/>
</g>
<!-- n3133&#45;&gt;n3599 -->
<g id="edge71" class="edge"><title>n3133&#45;&gt;n3599</title>
<path fill="none" stroke="black" d="M605.648,-1101.78C614.089,-1118.67 623.628,-1140.55 628.467,-1161.26 648.44,-1246.71 615.876,-1877.18 664.467,-1950.26 686.291,-1983.08 718.957,-1958.32 744.599,-1988.26 790.824,-2042.22 806.166,-2126.01 811.253,-2177.04"/>
<polygon fill="black" stroke="black" points="807.776,-2177.45 812.165,-2187.09 814.748,-2176.82 807.776,-2177.45"/>
</g>
<!-- n3133&#45;&gt;n3610 -->
<g id="edge72" class="edge"><title>n3133&#45;&gt;n3610</title>
<path fill="none" stroke="black" d="M618.343,-1089.53C632.166,-1097.6 649.026,-1107.19 664.467,-1115.26 699.401,-1133.51 714.438,-1127.88 744.599,-1153.26 765.828,-1171.12 759.957,-1185.72 780.599,-1204.26 806.455,-1227.48 829.36,-1213.54 848.942,-1242.26 904.998,-1324.45 919.37,-1628.76 922.905,-1749.96"/>
<polygon fill="black" stroke="black" points="919.41,-1750.19 923.187,-1760.09 926.407,-1749.99 919.41,-1750.19"/>
</g>
<!-- n3177 -->
<g id="node39" class="node"><title>n3177</title>
<ellipse fill="none" stroke="black" cx="704.533" cy="-1072.26" rx="34.3267" ry="34.3267"/>
<text text-anchor="middle" x="704.533" y="-1068.06" font-family="Times,serif" font-size="14.00">female</text>
</g>
<!-- n3133&#45;&gt;n3177 -->
<g id="edge69" class="edge"><title>n3133&#45;&gt;n3177</title>
<path fill="none" stroke="black" d="M622.72,-1072.26C634.337,-1072.26 647.552,-1072.26 659.881,-1072.26"/>
<polygon fill="black" stroke="black" points="659.975,-1075.76 669.975,-1072.26 659.975,-1068.76 659.975,-1075.76"/>
</g>
<!-- n3139&#45;&gt;n193 -->
<g id="edge74" class="edge"><title>n3139&#45;&gt;n193</title>
<path fill="none" stroke="black" d="M608.79,-645.266C616.112,-630.549 623.795,-612.985 628.467,-596.255 648.189,-525.631 614.626,-322.039 664.467,-268.255 710.357,-218.735 746.256,-240.255 813.77,-240.255 813.77,-240.255 813.77,-240.255 926.008,-240.255 987.721,-240.255 1020.22,-224.452 1061.58,-270.255 1097.39,-309.911 1119.96,-678.742 1126.72,-805.621"/>
<polygon fill="black" stroke="black" points="1123.23,-805.933 1127.26,-815.735 1130.22,-805.565 1123.23,-805.933"/>
</g>
<!-- n3139&#45;&gt;n3599 -->
<g id="edge75" class="edge"><title>n3139&#45;&gt;n3599</title>
<path fill="none" stroke="black" d="M614.764,-710.501C620.294,-718.699 625.403,-727.907 628.467,-737.255 666.692,-853.883 594.524,-1740.4 664.467,-1841.26 686.417,-1872.9 720.128,-1844.51 744.599,-1874.26 782.307,-1920.09 802.5,-2094.44 810.135,-2177.17"/>
<polygon fill="black" stroke="black" points="806.662,-2177.62 811.046,-2187.27 813.633,-2176.99 806.662,-2177.62"/>
</g>
<!-- n3139&#45;&gt;n3610 -->
<g id="edge76" class="edge"><title>n3139&#45;&gt;n3610</title>
<path fill="none" stroke="black" d="M628.049,-673.172C663.253,-669.132 714.244,-669.729 744.599,-699.255 821.601,-774.154 719.376,-849.989 780.599,-938.255 800.406,-966.812 829.98,-947.129 848.942,-976.255 891.187,-1041.15 915.52,-1581.24 922.146,-1750.04"/>
<polygon fill="black" stroke="black" points="918.653,-1750.29 922.539,-1760.15 925.648,-1750.02 918.653,-1750.29"/>
</g>
<!-- n3182 -->
<g id="node40" class="node"><title>n3182</title>
<ellipse fill="none" stroke="black" cx="704.533" cy="-612.255" rx="40.1317" ry="40.1317"/>
<text text-anchor="middle" x="704.533" y="-608.055" font-family="Times,serif" font-size="14.00">surname</text>
</g>
<!-- n3139&#45;&gt;n3182 -->
<g id="edge73" class="edge"><title>n3139&#45;&gt;n3182</title>
<path fill="none" stroke="black" d="M623.335,-660.037C635.074,-653.043 648.384,-645.113 660.74,-637.751"/>
<polygon fill="black" stroke="black" points="662.733,-640.638 669.532,-632.513 659.15,-634.624 662.733,-640.638"/>
</g>
<!-- n3199 -->
<g id="node41" class="node"><title>n3199</title>
<ellipse fill="none" stroke="black" cx="478.173" cy="-888.255" rx="34.3267" ry="34.3267"/>
<text text-anchor="middle" x="478.173" y="-884.055" font-family="Times,serif" font-size="14.00">female</text>
</g>
<!-- n3153&#45;&gt;n3199 -->
<g id="edge77" class="edge"><title>n3153&#45;&gt;n3199</title>
<path fill="none" stroke="black" d="M408.069,-888.255C416.201,-888.255 425.024,-888.255 433.561,-888.255"/>
<polygon fill="black" stroke="black" points="433.767,-891.755 443.767,-888.255 433.767,-884.755 433.767,-891.755"/>
</g>
<!-- n3219 -->
<g id="node42" class="node"><title>n3219</title>
<ellipse fill="none" stroke="black" cx="588.401" cy="-941.255" rx="40.1317" ry="40.1317"/>
<text text-anchor="middle" x="588.401" y="-937.055" font-family="Times,serif" font-size="14.00">surname</text>
</g>
<!-- n3153&#45;&gt;n3219 -->
<g id="edge78" class="edge"><title>n3153&#45;&gt;n3219</title>
<path fill="none" stroke="black" d="M401.25,-908.913C413.551,-917.382 428.809,-926.337 444.01,-931.255 474.248,-941.039 509.89,-943.563 538.074,-943.629"/>
<polygon fill="black" stroke="black" points="538.124,-947.129 548.096,-943.551 538.069,-940.129 538.124,-947.129"/>
</g>
<!-- n3474&#45;&gt;n193 -->
<g id="edge80" class="edge"><title>n3474&#45;&gt;n193</title>
<path fill="none" stroke="black" d="M589.598,-3731.3C591.638,-3784.71 603.54,-3894.29 664.467,-3957.26 713.031,-4007.45 743.931,-4006.26 813.77,-4006.26 813.77,-4006.26 813.77,-4006.26 926.008,-4006.26 958.776,-4006.26 1036.11,-3959.68 1061.58,-3910.26 1133.95,-3769.85 1129.94,-1251.23 1128.99,-891.005"/>
<polygon fill="black" stroke="black" points="1132.49,-890.972 1128.97,-880.981 1125.49,-890.991 1132.49,-890.972"/>
</g>
<!-- n3474&#45;&gt;n3599 -->
<g id="edge81" class="edge"><title>n3474&#45;&gt;n3599</title>
<path fill="none" stroke="black" d="M599.89,-3671.48C609.219,-3644.46 622.31,-3602.69 628.467,-3565.26 643.122,-3476.14 622.9,-2833.43 664.467,-2753.26 685.193,-2713.28 721.866,-2730.13 744.599,-2691.26 786.665,-2619.33 805.419,-2368.14 811.454,-2265.48"/>
<polygon fill="black" stroke="black" points="814.952,-2265.63 812.032,-2255.44 807.963,-2265.22 814.952,-2265.63"/>
</g>
<!-- n3474&#45;&gt;n3610 -->
<g id="edge82" class="edge"><title>n3474&#45;&gt;n3610</title>
<path fill="none" stroke="black" d="M618.259,-3691.95C658.401,-3679.82 728.041,-3656.51 744.599,-3636.26 797.898,-3571.07 731.178,-3518.43 780.599,-3450.26 800.997,-3422.12 830.63,-3441.79 848.942,-3412.26 891.05,-3344.33 917.735,-2116.59 923.034,-1850.75"/>
<polygon fill="black" stroke="black" points="926.536,-1850.68 923.235,-1840.61 919.537,-1850.54 926.536,-1850.68"/>
</g>
<!-- n3475 -->
<g id="node43" class="node"><title>n3475</title>
<ellipse fill="none" stroke="black" cx="704.533" cy="-3719.26" rx="30.9793" ry="30.9793"/>
<text text-anchor="middle" x="704.533" y="-3715.06" font-family="Times,serif" font-size="14.00">initial</text>
</g>
<!-- n3474&#45;&gt;n3475 -->
<g id="edge79" class="edge"><title>n3474&#45;&gt;n3475</title>
<path fill="none" stroke="black" d="M618.793,-3705.15C632.531,-3707.44 649.092,-3710.19 663.915,-3712.66"/>
<polygon fill="black" stroke="black" points="663.405,-3716.12 673.844,-3714.31 664.555,-3709.22 663.405,-3716.12"/>
</g>
<!-- n3495&#45;&gt;n193 -->
<g id="edge83" class="edge"><title>n3495&#45;&gt;n193</title>
<path fill="none" stroke="black" d="M722.892,-1477.31C730.991,-1462.31 739.871,-1443.38 744.599,-1425.26 761.2,-1361.6 732.686,-879.338 780.599,-834.255 865.41,-754.452 1019.52,-802.545 1090.81,-831.341"/>
<polygon fill="black" stroke="black" points="1089.73,-834.679 1100.31,-835.261 1092.4,-828.209 1089.73,-834.679"/>
</g>
<!-- n3495&#45;&gt;n3599 -->
<g id="edge84" class="edge"><title>n3495&#45;&gt;n3599</title>
<path fill="none" stroke="black" d="M717.93,-1538.09C726.675,-1561.78 737.97,-1595.1 744.599,-1625.26 789.254,-1828.41 806.331,-2077.26 811.684,-2176.91"/>
<polygon fill="black" stroke="black" points="808.19,-2177.12 812.209,-2186.92 815.18,-2176.75 808.19,-2177.12"/>
</g>
<!-- n3495&#45;&gt;n3610 -->
<g id="edge85" class="edge"><title>n3495&#45;&gt;n3610</title>
<path fill="none" stroke="black" d="M738.85,-1508.78C771.249,-1513 819.73,-1524.25 848.942,-1554.26 900.589,-1607.31 916.824,-1694.84 921.852,-1749.93"/>
<polygon fill="black" stroke="black" points="918.386,-1750.48 922.692,-1760.16 925.362,-1749.9 918.386,-1750.48"/>
</g>
<!-- n3501&#45;&gt;n193 -->
<g id="edge86" class="edge"><title>n3501&#45;&gt;n193</title>
<path fill="none" stroke="black" d="M719.561,-1339.07C728.228,-1314.5 738.774,-1281.39 744.599,-1251.26 754.223,-1201.46 743.351,-830.672 780.599,-796.255 826.459,-753.88 1002.49,-776.081 1061.58,-796.255 1075.17,-800.892 1088.14,-809.507 1099,-818.409"/>
<polygon fill="black" stroke="black" points="1097.02,-821.321 1106.87,-825.211 1101.59,-816.025 1097.02,-821.321"/>
</g>
<!-- n3501&#45;&gt;n3599 -->
<g id="edge87" class="edge"><title>n3501&#45;&gt;n3599</title>
<path fill="none" stroke="black" d="M724.446,-1411.26C731.972,-1426.76 739.936,-1445.48 744.599,-1463.26 780.415,-1599.8 804.628,-2036.4 811.658,-2177.1"/>
<polygon fill="black" stroke="black" points="808.163,-2177.29 812.154,-2187.1 815.154,-2176.94 808.163,-2177.29"/>
</g>
<!-- n3501&#45;&gt;n3610 -->
<g id="edge88" class="edge"><title>n3501&#45;&gt;n3610</title>
<path fill="none" stroke="black" d="M744.649,-1380.56C777.382,-1386.29 822.81,-1399.57 848.942,-1430.26 889.513,-1477.9 911.323,-1660.3 919.788,-1749.94"/>
<polygon fill="black" stroke="black" points="916.325,-1750.5 920.731,-1760.14 923.295,-1749.86 916.325,-1750.5"/>
</g>
<!-- n3767&#45;&gt;n193 -->
<g id="edge89" class="edge"><title>n3767&#45;&gt;n193</title>
<path fill="none" stroke="black" d="M844.872,-25.4465C896.962,-18.6861 1005.88,-13.2758 1061.58,-74.2551 1111.16,-128.529 1125.09,-651.599 1128.13,-805.725"/>
<polygon fill="black" stroke="black" points="1124.64,-805.824 1128.33,-815.754 1131.63,-805.689 1124.64,-805.824"/>
</g>
<!-- n3483&#45;&gt;n3488 -->
<g id="edge90" class="edge"><title>n3483&#45;&gt;n3488</title>
<path fill="none" stroke="black" d="M509.897,-1242.48C519.854,-1238.34 531.12,-1233.66 541.915,-1229.17"/>
<polygon fill="black" stroke="black" points="543.346,-1232.36 551.236,-1225.29 540.658,-1225.9 543.346,-1232.36"/>
</g>
<!-- n3488&#45;&gt;n193 -->
<g id="edge92" class="edge"><title>n3488&#45;&gt;n193</title>
<path fill="none" stroke="black" d="M607.404,-1174.65C615.345,-1157.21 623.897,-1135.61 628.467,-1115.26 645.499,-1039.37 612.522,-474.133 664.467,-416.255 709.358,-366.237 746.561,-392.255 813.77,-392.255 813.77,-392.255 813.77,-392.255 926.008,-392.255 987.2,-392.255 1018.76,-372.54 1061.58,-416.255 1115.2,-470.994 1126.09,-708.082 1128.3,-805.855"/>
<polygon fill="black" stroke="black" points="1124.81,-806.047 1128.51,-815.973 1131.81,-805.902 1124.81,-806.047"/>
</g>
<!-- n3488&#45;&gt;n3599 -->
<g id="edge93" class="edge"><title>n3488&#45;&gt;n3599</title>
<path fill="none" stroke="black" d="M614.45,-1240.82C620.059,-1249.24 625.284,-1258.69 628.467,-1268.26 653.767,-1344.25 619.971,-1921.65 664.467,-1988.26 686.363,-2021.03 718.184,-1997 744.599,-2026.26 783.043,-2068.83 800.441,-2134.17 808.09,-2177.31"/>
<polygon fill="black" stroke="black" points="804.647,-2177.94 809.747,-2187.23 811.552,-2176.79 804.647,-2177.94"/>
</g>
<!-- n3488&#45;&gt;n3610 -->
<g id="edge94" class="edge"><title>n3488&#45;&gt;n3610</title>
<path fill="none" stroke="black" d="M623.455,-1229.66C636.196,-1236.71 650.874,-1244.57 664.467,-1251.26 744.829,-1290.75 794.179,-1261.41 848.942,-1332.26 898.924,-1396.92 916.535,-1642.99 921.918,-1750.03"/>
<polygon fill="black" stroke="black" points="918.434,-1750.43 922.416,-1760.25 925.425,-1750.09 918.434,-1750.43"/>
</g>
<!-- n3489 -->
<g id="node44" class="node"><title>n3489</title>
<ellipse fill="none" stroke="black" cx="704.533" cy="-1202.26" rx="40.1317" ry="40.1317"/>
<text text-anchor="middle" x="704.533" y="-1198.06" font-family="Times,serif" font-size="14.00">surname</text>
</g>
<!-- n3488&#45;&gt;n3489 -->
<g id="edge91" class="edge"><title>n3488&#45;&gt;n3489</title>
<path fill="none" stroke="black" d="M628.679,-1207.5C636.839,-1206.93 645.538,-1206.32 654.011,-1205.73"/>
<polygon fill="black" stroke="black" points="654.452,-1209.2 664.183,-1205.01 653.963,-1202.22 654.452,-1209.2"/>
</g>
<!-- n1581&#45;&gt;n193 -->
<g id="edge96" class="edge"><title>n1581&#45;&gt;n193</title>
<path fill="none" stroke="black" d="M483.679,-3044.81C490.608,-3092.6 503.951,-3187.99 512.335,-3269.26 533.881,-3478.09 495.874,-3536.97 548.335,-3740.26 586.243,-3887.14 551.833,-4044.26 703.533,-4044.26 703.533,-4044.26 703.533,-4044.26 926.008,-4044.26 953.635,-4044.26 1033.26,-4007.12 1061.58,-3955.26 1100.07,-3884.79 1125.16,-1257.94 1128.49,-890.717"/>
<polygon fill="black" stroke="black" points="1131.99,-890.548 1128.58,-880.516 1124.99,-890.484 1131.99,-890.548"/>
</g>
<!-- n1581&#45;&gt;n3599 -->
<g id="edge97" class="edge"><title>n1581&#45;&gt;n3599</title>
<path fill="none" stroke="black" d="M480.696,-2983.48C486.722,-2867.22 510.432,-2459.21 548.335,-2416.26 607.752,-2348.92 675.081,-2425.1 744.599,-2368.26 776.556,-2342.12 794.582,-2297.82 804.16,-2264.67"/>
<polygon fill="black" stroke="black" points="807.605,-2265.34 806.868,-2254.77 800.853,-2263.49 807.605,-2265.34"/>
</g>
<!-- n1581&#45;&gt;n3610 -->
<g id="edge98" class="edge"><title>n1581&#45;&gt;n3610</title>
<path fill="none" stroke="black" d="M508.468,-3020.27C582.098,-3033.46 774.329,-3055.49 848.942,-2944.26 910.479,-2852.52 921.738,-2059.57 923.643,-1850.57"/>
<polygon fill="black" stroke="black" points="927.144,-1850.52 923.732,-1840.49 920.144,-1850.46 927.144,-1850.52"/>
</g>
<!-- n1674 -->
<g id="node45" class="node"><title>n1674</title>
<ellipse fill="none" stroke="black" cx="588.401" cy="-2955.26" rx="30.9793" ry="30.9793"/>
<text text-anchor="middle" x="588.401" y="-2951.06" font-family="Times,serif" font-size="14.00">initial</text>
</g>
<!-- n1581&#45;&gt;n1674 -->
<g id="edge95" class="edge"><title>n1581&#45;&gt;n1674</title>
<path fill="none" stroke="black" d="M505.648,-2999.82C519.537,-2992.25 536.746,-2982.87 551.788,-2974.67"/>
<polygon fill="black" stroke="black" points="553.719,-2977.6 560.824,-2969.74 550.368,-2971.46 553.719,-2977.6"/>
</g>
<!-- n1634&#45;&gt;n193 -->
<g id="edge100" class="edge"><title>n1634&#45;&gt;n193</title>
<path fill="none" stroke="black" d="M607.79,-3216.64C615.61,-3230.2 623.952,-3246.99 628.467,-3263.26 645.943,-3326.22 623.434,-3799.4 664.467,-3850.26 707.753,-3903.9 744.838,-3892.26 813.77,-3892.26 813.77,-3892.26 813.77,-3892.26 926.008,-3892.26 991.913,-3892.26 1042.43,-3796.67 1061.58,-3742.26 1111.05,-3601.72 1126.61,-1237.7 1128.63,-890.652"/>
<polygon fill="black" stroke="black" points="1132.13,-890.54 1128.69,-880.52 1125.13,-890.499 1132.13,-890.54"/>
</g>
<!-- n1634&#45;&gt;n3599 -->
<g id="edge101" class="edge"><title>n1634&#45;&gt;n3599</title>
<path fill="none" stroke="black" d="M611.263,-3162.61C617.976,-3153.32 624.606,-3142.36 628.467,-3131.26 666.875,-3020.8 603.365,-2705.96 664.467,-2606.26 686.159,-2570.86 720.586,-2592.12 744.599,-2558.26 777.702,-2511.57 800.007,-2345.92 809.13,-2265.59"/>
<polygon fill="black" stroke="black" points="812.647,-2265.63 810.279,-2255.3 805.69,-2264.85 812.647,-2265.63"/>
</g>
<!-- n1634&#45;&gt;n3610 -->
<g id="edge102" class="edge"><title>n1634&#45;&gt;n3610</title>
<path fill="none" stroke="black" d="M622.569,-3182.57C686.436,-3170.87 822.535,-3141.99 848.942,-3104.26 921.81,-3000.12 924.62,-2078.3 924.194,-1850.83"/>
<polygon fill="black" stroke="black" points="927.693,-1850.52 924.171,-1840.52 920.693,-1850.53 927.693,-1850.52"/>
</g>
<!-- n1725 -->
<g id="node46" class="node"><title>n1725</title>
<ellipse fill="none" stroke="black" cx="704.533" cy="-3250.26" rx="34.3267" ry="34.3267"/>
<text text-anchor="middle" x="704.533" y="-3246.06" font-family="Times,serif" font-size="14.00">female</text>
</g>
<!-- n1634&#45;&gt;n1725 -->
<g id="edge99" class="edge"><title>n1634&#45;&gt;n1725</title>
<path fill="none" stroke="black" d="M618.793,-3204.22C632.904,-3211.89 649.995,-3221.17 665.121,-3229.39"/>
<polygon fill="black" stroke="black" points="663.783,-3232.64 674.241,-3234.34 667.124,-3226.49 663.783,-3232.64"/>
</g>
<!-- n1646&#45;&gt;n193 -->
<g id="edge104" class="edge"><title>n1646&#45;&gt;n193</title>
<path fill="none" stroke="black" d="M613.204,-3113.76C619.268,-3123.38 625.035,-3134.33 628.467,-3145.26 650.871,-3216.59 616.831,-3759.62 664.467,-3817.26 708.02,-3869.95 745.406,-3854.26 813.77,-3854.26 813.77,-3854.26 813.77,-3854.26 926.008,-3854.26 1023.28,-3854.26 1034.43,-3747.93 1061.58,-3640.26 1131.59,-3362.65 1129.69,-1220.76 1128.98,-890.857"/>
<polygon fill="black" stroke="black" points="1132.48,-890.747 1128.95,-880.755 1125.48,-890.763 1132.48,-890.747"/>
</g>
<!-- n1646&#45;&gt;n3599 -->
<g id="edge105" class="edge"><title>n1646&#45;&gt;n3599</title>
<path fill="none" stroke="black" d="M608.374,-3047.26C615.91,-3031.77 623.865,-3013.05 628.467,-2995.26 652.31,-2903.06 614.078,-2649.06 664.467,-2568.26 686.435,-2533.03 720.167,-2553.82 744.599,-2520.26 800.473,-2443.5 812.077,-2328.73 813.97,-2266.06"/>
<polygon fill="black" stroke="black" points="817.476,-2265.8 814.207,-2255.72 810.478,-2265.64 817.476,-2265.8"/>
</g>
<!-- n1646&#45;&gt;n3610 -->
<g id="edge106" class="edge"><title>n1646&#45;&gt;n3610</title>
<path fill="none" stroke="black" d="M619.506,-3107.64C632.479,-3116.99 648.357,-3126.46 664.467,-3131.26 698.603,-3141.41 710.425,-3141.28 744.599,-3131.26 771.04,-3123.5 835.02,-3088.04 848.942,-3064.26 911.055,-2958.16 921.934,-2072.33 923.691,-1850.48"/>
<polygon fill="black" stroke="black" points="927.191,-1850.45 923.767,-1840.42 920.191,-1850.4 927.191,-1850.45"/>
</g>
<!-- n1736 -->
<g id="node47" class="node"><title>n1736</title>
<ellipse fill="none" stroke="black" cx="704.533" cy="-3082.26" rx="40.1317" ry="40.1317"/>
<text text-anchor="middle" x="704.533" y="-3078.06" font-family="Times,serif" font-size="14.00">surname</text>
</g>
<!-- n1646&#45;&gt;n1736 -->
<g id="edge103" class="edge"><title>n1646&#45;&gt;n1736</title>
<path fill="none" stroke="black" d="M628.679,-3082.26C636.839,-3082.26 645.538,-3082.26 654.011,-3082.26"/>
<polygon fill="black" stroke="black" points="654.183,-3085.76 664.183,-3082.26 654.183,-3078.76 654.183,-3085.76"/>
</g>
<!-- n1778 -->
<g id="node48" class="node"><title>n1778</title>
<ellipse fill="none" stroke="black" cx="478.173" cy="-3312.26" rx="34.3267" ry="34.3267"/>
<text text-anchor="middle" x="478.173" y="-3308.06" font-family="Times,serif" font-size="14.00">female</text>
</g>
<!-- n1686&#45;&gt;n1778 -->
<g id="edge107" class="edge"><title>n1686&#45;&gt;n1778</title>
<path fill="none" stroke="black" d="M403.35,-3267.53C414.566,-3274.32 427.601,-3282.22 439.57,-3289.47"/>
<polygon fill="black" stroke="black" points="438.101,-3292.67 448.467,-3294.86 441.728,-3286.69 438.101,-3292.67"/>
</g>
<!-- n1822 -->
<g id="node49" class="node"><title>n1822</title>
<ellipse fill="none" stroke="black" cx="588.401" cy="-3312.26" rx="40.1317" ry="40.1317"/>
<text text-anchor="middle" x="588.401" y="-3308.06" font-family="Times,serif" font-size="14.00">surname</text>
</g>
<!-- n1686&#45;&gt;n1822 -->
<g id="edge108" class="edge"><title>n1686&#45;&gt;n1822</title>
<path fill="none" stroke="black" d="M408.164,-3251.31C436.528,-3253.04 478.013,-3257.55 512.335,-3269.26 523.774,-3273.16 535.438,-3278.85 546.056,-3284.83"/>
<polygon fill="black" stroke="black" points="544.302,-3287.86 554.701,-3289.89 547.835,-3281.82 544.302,-3287.86"/>
</g>
<!-- n1418&#45;&gt;n193 -->
<g id="edge110" class="edge"><title>n1418&#45;&gt;n193</title>
<path fill="none" stroke="black" d="M598.478,-1617.01C607.848,-1585.37 621.985,-1533.28 628.467,-1487.26 642.798,-1385.51 604.558,-646.726 664.467,-563.255 705.883,-505.551 742.742,-506.255 813.77,-506.255 813.77,-506.255 813.77,-506.255 926.008,-506.255 988.352,-506.255 1018.46,-497.231 1061.58,-542.255 1097.47,-579.726 1117.24,-731.288 1124.98,-806.084"/>
<polygon fill="black" stroke="black" points="1121.5,-806.512 1125.99,-816.109 1128.47,-805.808 1121.5,-806.512"/>
</g>
<!-- n1418&#45;&gt;n3599 -->
<g id="edge111" class="edge"><title>n1418&#45;&gt;n3599</title>
<path fill="none" stroke="black" d="M602.832,-1673.58C611.593,-1692.64 622.478,-1718.93 628.467,-1743.26 647.635,-1821.11 618.276,-2036.72 664.467,-2102.26 687.175,-2134.47 713.302,-2116.29 744.599,-2140.26 761.076,-2152.87 776.399,-2169.99 788.414,-2185.24"/>
<polygon fill="black" stroke="black" points="785.871,-2187.68 794.735,-2193.48 791.425,-2183.42 785.871,-2187.68"/>
</g>
<!-- n1418&#45;&gt;n3610 -->
<g id="edge112" class="edge"><title>n1418&#45;&gt;n3610</title>
<path fill="none" stroke="black" d="M617.737,-1636.28C649.08,-1626.67 700.929,-1614.98 744.599,-1625.26 795.035,-1637.13 810.769,-1642.22 848.942,-1677.26 872.415,-1698.8 891.111,-1729.35 903.974,-1754.61"/>
<polygon fill="black" stroke="black" points="900.876,-1756.24 908.447,-1763.66 907.15,-1753.14 900.876,-1756.24"/>
</g>
<!-- n1551 -->
<g id="node50" class="node"><title>n1551</title>
<ellipse fill="none" stroke="black" cx="704.533" cy="-1665.26" rx="30.9793" ry="30.9793"/>
<text text-anchor="middle" x="704.533" y="-1661.06" font-family="Times,serif" font-size="14.00">initial</text>
</g>
<!-- n1418&#45;&gt;n1551 -->
<g id="edge109" class="edge"><title>n1418&#45;&gt;n1551</title>
<path fill="none" stroke="black" d="M618.793,-1651.15C632.531,-1653.44 649.092,-1656.19 663.915,-1658.66"/>
<polygon fill="black" stroke="black" points="663.405,-1662.12 673.844,-1660.31 664.555,-1655.22 663.405,-1662.12"/>
</g>
<!-- n1455&#45;&gt;n193 -->
<g id="edge113" class="edge"><title>n1455&#45;&gt;n193</title>
<path fill="none" stroke="black" d="M738.88,-2795.42C771.539,-2792.76 820.431,-2783.53 848.942,-2753.26 1131.61,-2453.09 1000.31,-2257.99 1061.58,-1850.26 1116.95,-1481.84 1126.76,-1030.34 1128.5,-891.14"/>
<polygon fill="black" stroke="black" points="1132,-890.944 1128.62,-880.903 1125,-890.862 1132,-890.944"/>
</g>
<!-- n1455&#45;&gt;n3599 -->
<g id="edge114" class="edge"><title>n1455&#45;&gt;n3599</title>
<path fill="none" stroke="black" d="M729.294,-2772.34C735.203,-2765.13 740.9,-2756.84 744.599,-2748.26 782.005,-2661.44 803.844,-2376.01 811.073,-2265.5"/>
<polygon fill="black" stroke="black" points="814.576,-2265.57 811.727,-2255.37 807.59,-2265.12 814.576,-2265.57"/>
</g>
<!-- n1455&#45;&gt;n3610 -->
<g id="edge115" class="edge"><title>n1455&#45;&gt;n3610</title>
<path fill="none" stroke="black" d="M737.422,-2786.8C771.38,-2774.9 823.641,-2750.93 848.942,-2710.26 894.501,-2637.01 916.852,-2030.53 922.526,-1850.47"/>
<polygon fill="black" stroke="black" points="926.024,-1850.58 922.837,-1840.47 919.027,-1850.36 926.024,-1850.58"/>
</g>
<!-- n1462&#45;&gt;n193 -->
<g id="edge116" class="edge"><title>n1462&#45;&gt;n193</title>
<path fill="none" stroke="black" d="M729.443,-3484.79C734.641,-3477.53 739.966,-3469.73 744.599,-3462.26 920.049,-3179.17 996.815,-3109.94 1061.58,-2783.26 1099.52,-2591.89 1123.98,-1156.37 1128.21,-890.533"/>
<polygon fill="black" stroke="black" points="1131.71,-890.564 1128.37,-880.51 1124.71,-890.454 1131.71,-890.564"/>
</g>
<!-- n1462&#45;&gt;n3599 -->
<g id="edge117" class="edge"><title>n1462&#45;&gt;n3599</title>
<path fill="none" stroke="black" d="M724.736,-3481.32C732.313,-3465.84 740.237,-3447.11 744.599,-3429.26 800.105,-3202.07 811.384,-2456.2 813.381,-2265.81"/>
<polygon fill="black" stroke="black" points="816.882,-2265.65 813.484,-2255.62 809.883,-2265.58 816.882,-2265.65"/>
</g>
<!-- n1462&#45;&gt;n3610 -->
<g id="edge118" class="edge"><title>n1462&#45;&gt;n3610</title>
<path fill="none" stroke="black" d="M730.481,-3485.37C735.626,-3478.08 740.666,-3470.12 744.599,-3462.26 768.738,-3413.97 748.808,-3389.88 780.599,-3346.26 802.458,-3316.26 831.007,-3330.75 848.942,-3298.26 920.147,-3169.23 924.119,-2097.05 924.085,-1850.62"/>
<polygon fill="black" stroke="black" points="927.585,-1850.51 924.081,-1840.51 920.585,-1850.51 927.585,-1850.51"/>
</g>
<!-- n1567&#45;&gt;n1742 -->
<g id="edge119" class="edge"><title>n1567&#45;&gt;n1742</title>
<path fill="none" stroke="black" d="M512.528,-1792.26C520.653,-1792.26 529.513,-1792.26 538.203,-1792.26"/>
<polygon fill="black" stroke="black" points="538.272,-1795.76 548.272,-1792.26 538.272,-1788.76 538.272,-1795.76"/>
</g>
<!-- n1742&#45;&gt;n193 -->
<g id="edge121" class="edge"><title>n1742&#45;&gt;n193</title>
<path fill="none" stroke="black" d="M605.921,-1755.77C614.223,-1735.68 623.542,-1710.07 628.467,-1686.26 658.078,-1543.07 603.075,-1161.96 664.467,-1029.26 685.076,-984.707 722.163,-996.912 744.599,-953.255 797.922,-849.497 694.118,-771.55 780.599,-693.255 873.186,-609.432 959.729,-624.975 1061.58,-697.255 1097.16,-722.501 1114.21,-770.999 1122.19,-806.238"/>
<polygon fill="black" stroke="black" points="1118.81,-807.186 1124.3,-816.251 1125.66,-805.744 1118.81,-807.186"/>
</g>
<!-- n1742&#45;&gt;n3599 -->
<g id="edge122" class="edge"><title>n1742&#45;&gt;n3599</title>
<path fill="none" stroke="black" d="M593.78,-1832.04C603.313,-1912.63 628.053,-2091.66 664.467,-2140.26 671.824,-2150.07 732.707,-2181.35 774.418,-2202.05"/>
<polygon fill="black" stroke="black" points="773.006,-2205.25 783.521,-2206.55 776.107,-2198.98 773.006,-2205.25"/>
</g>
<!-- n1742&#45;&gt;n3610 -->
<g id="edge123" class="edge"><title>n1742&#45;&gt;n3610</title>
<path fill="none" stroke="black" d="M619.506,-1766.87C632.479,-1757.52 648.357,-1748.05 664.467,-1743.26 738.979,-1721.09 827.853,-1752.8 879.896,-1777.07"/>
<polygon fill="black" stroke="black" points="878.641,-1780.35 889.173,-1781.5 881.657,-1774.03 878.641,-1780.35"/>
</g>
<!-- n1799 -->
<g id="node51" class="node"><title>n1799</title>
<ellipse fill="none" stroke="black" cx="704.533" cy="-1792.26" rx="40.1317" ry="40.1317"/>
<text text-anchor="middle" x="704.533" y="-1788.06" font-family="Times,serif" font-size="14.00">surname</text>
</g>
<!-- n1742&#45;&gt;n1799 -->
<g id="edge120" class="edge"><title>n1742&#45;&gt;n1799</title>
<path fill="none" stroke="black" d="M628.679,-1792.26C636.839,-1792.26 645.538,-1792.26 654.011,-1792.26"/>
<polygon fill="black" stroke="black" points="654.183,-1795.76 664.183,-1792.26 654.183,-1788.76 654.183,-1795.76"/>
</g>
<!-- n3630&#45;&gt;n193 -->
<g id="edge124" class="edge"><title>n3630&#45;&gt;n193</title>
<path fill="none" stroke="black" d="M1051.12,-1766.77C1055.26,-1760.44 1059.14,-1753.37 1061.58,-1746.26 1116.93,-1585.09 1126.8,-1047.26 1128.52,-891.105"/>
<polygon fill="black" stroke="black" points="1132.02,-890.991 1128.62,-880.955 1125.02,-890.918 1132.02,-890.991"/>
</g>
<!-- n3147&#45;&gt;n193 -->
<g id="edge126" class="edge"><title>n3147&#45;&gt;n193</title>
<path fill="none" stroke="black" d="M611.172,-756.13C617.877,-748.342 624.526,-739.019 628.467,-729.255 664.109,-640.951 599.714,-372.076 664.467,-302.255 710.169,-252.977 746.561,-278.255 813.77,-278.255 813.77,-278.255 813.77,-278.255 926.008,-278.255 987.2,-278.255 1019.47,-257.862 1061.58,-302.255 1096.16,-338.695 1119.34,-683.947 1126.51,-805.87"/>
<polygon fill="black" stroke="black" points="1123.02,-806.168 1127.1,-815.948 1130.01,-805.762 1123.02,-806.168"/>
</g>
<!-- n3147&#45;&gt;n3599 -->
<g id="edge127" class="edge"><title>n3147&#45;&gt;n3599</title>
<path fill="none" stroke="black" d="M601.565,-805.467C610.807,-828.378 622.855,-861.771 628.467,-892.255 648.235,-999.635 604.42,-1783.07 664.467,-1874.26 686.144,-1907.17 719.995,-1881.46 744.599,-1912.26 777.044,-1952.86 799.3,-2102.09 808.715,-2177.3"/>
<polygon fill="black" stroke="black" points="805.263,-2177.91 809.959,-2187.41 812.211,-2177.05 805.263,-2177.91"/>
</g>
<!-- n3147&#45;&gt;n3610 -->
<g id="edge128" class="edge"><title>n3147&#45;&gt;n3610</title>
<path fill="none" stroke="black" d="M619.326,-777.122C654.626,-778.683 712.548,-786.939 744.599,-822.255 802.946,-886.547 733.607,-941.251 780.599,-1014.26 800.689,-1045.47 830.18,-1030.23 848.942,-1062.26 917.521,-1179.32 924.063,-1603.58 924.23,-1750.09"/>
<polygon fill="black" stroke="black" points="920.73,-1750.15 924.232,-1760.15 927.73,-1750.15 920.73,-1750.15"/>
</g>
<!-- n3186 -->
<g id="node52" class="node"><title>n3186</title>
<ellipse fill="none" stroke="black" cx="704.533" cy="-739.255" rx="30.9793" ry="30.9793"/>
<text text-anchor="middle" x="704.533" y="-735.055" font-family="Times,serif" font-size="14.00">initial</text>
</g>
<!-- n3147&#45;&gt;n3186 -->
<g id="edge125" class="edge"><title>n3147&#45;&gt;n3186</title>
<path fill="none" stroke="black" d="M617.907,-767.764C632.206,-763.003 649.727,-757.17 665.188,-752.022"/>
<polygon fill="black" stroke="black" points="666.613,-755.237 674.995,-748.757 664.401,-748.595 666.613,-755.237"/>
</g>
<!-- n3177&#45;&gt;n193 -->
<g id="edge129" class="edge"><title>n3177&#45;&gt;n193</title>
<path fill="none" stroke="black" d="M729.365,-1048.37C735.275,-1041.16 740.954,-1032.86 744.599,-1024.26 771.122,-961.611 729.746,-765.441 780.599,-720.255 827.275,-678.78 1008.14,-687.969 1061.58,-720.255 1092.57,-738.974 1110,-777.217 1119.31,-807.05"/>
<polygon fill="black" stroke="black" points="1115.99,-808.19 1122.16,-816.805 1122.71,-806.224 1115.99,-808.19"/>
</g>
<!-- n3177&#45;&gt;n3599 -->
<g id="edge130" class="edge"><title>n3177&#45;&gt;n3599</title>
<path fill="none" stroke="black" d="M722.862,-1101.21C730.955,-1116.21 739.836,-1135.14 744.599,-1153.26 796.672,-1351.37 810.358,-2000.51 813.153,-2176.76"/>
<polygon fill="black" stroke="black" points="809.656,-2177.01 813.311,-2186.96 816.655,-2176.91 809.656,-2177.01"/>
</g>
<!-- n3177&#45;&gt;n3610 -->
<g id="edge131" class="edge"><title>n3177&#45;&gt;n3610</title>
<path fill="none" stroke="black" d="M726.912,-1098.34C732.681,-1105.43 738.902,-1113.12 744.599,-1120.26 760.793,-1140.55 761.773,-1148.38 780.599,-1166.26 807.515,-1191.81 829.764,-1182.48 848.942,-1214.26 903.192,-1304.15 918.681,-1625.09 922.709,-1750"/>
<polygon fill="black" stroke="black" points="919.213,-1750.17 923.022,-1760.06 926.209,-1749.96 919.213,-1750.17"/>
</g>
<!-- n3182&#45;&gt;n193 -->
<g id="edge132" class="edge"><title>n3182&#45;&gt;n193</title>
<path fill="none" stroke="black" d="M740.303,-593.923C810.953,-559.489 972.154,-495.702 1061.58,-578.255 1094.67,-608.799 1115.25,-738.047 1123.99,-806.039"/>
<polygon fill="black" stroke="black" points="1120.52,-806.519 1125.24,-816.005 1127.47,-805.646 1120.52,-806.519"/>
</g>
<!-- n3182&#45;&gt;n3599 -->
<g id="edge133" class="edge"><title>n3182&#45;&gt;n3599</title>
<path fill="none" stroke="black" d="M724.837,-647.163C732.432,-662.646 740.342,-681.377 744.599,-699.255 813.953,-990.559 814.736,-1957.14 813.991,-2176.65"/>
<polygon fill="black" stroke="black" points="810.491,-2176.81 813.953,-2186.83 817.49,-2176.84 810.491,-2176.81"/>
</g>
<!-- n3182&#45;&gt;n3610 -->
<g id="edge134" class="edge"><title>n3182&#45;&gt;n3610</title>
<path fill="none" stroke="black" d="M731.16,-642.448C736.333,-649.843 741.216,-658.013 744.599,-666.255 784.552,-763.599 725.1,-810.857 780.599,-900.255 800.176,-931.79 830.396,-916.102 848.942,-948.255 889.044,-1017.78 914.952,-1577.59 922.037,-1749.94"/>
<polygon fill="black" stroke="black" points="918.543,-1750.16 922.448,-1760.01 925.537,-1749.87 918.543,-1750.16"/>
</g>
<!-- n3199&#45;&gt;n3219 -->
<g id="edge135" class="edge"><title>n3199&#45;&gt;n3219</title>
<path fill="none" stroke="black" d="M509.32,-903.019C519.68,-908.092 531.507,-913.884 542.77,-919.399"/>
<polygon fill="black" stroke="black" points="541.532,-922.69 552.052,-923.944 544.61,-916.403 541.532,-922.69"/>
</g>
<!-- n3219&#45;&gt;n193 -->
<g id="edge137" class="edge"><title>n3219&#45;&gt;n193</title>
<path fill="none" stroke="black" d="M603.568,-904.118C612.234,-879.78 622.726,-847.065 628.467,-817.255 638.519,-765.063 628.496,-379.384 664.467,-340.255 709.952,-290.777 746.561,-316.255 813.77,-316.255 813.77,-316.255 813.77,-316.255 926.008,-316.255 987.2,-316.255 1019.27,-296.054 1061.58,-340.255 1125.06,-406.555 1129.92,-696.015 1129.42,-805.814"/>
<polygon fill="black" stroke="black" points="1125.92,-805.843 1129.35,-815.865 1132.92,-805.888 1125.92,-805.843"/>
</g>
<!-- n3219&#45;&gt;n3599 -->
<g id="edge138" class="edge"><title>n3219&#45;&gt;n3599</title>
<path fill="none" stroke="black" d="M608.539,-976.156C616.203,-991.901 624.212,-1011.02 628.467,-1029.26 650.783,-1124.88 610.297,-1830.36 664.467,-1912.26 686.212,-1945.13 719.541,-1919.83 744.599,-1950.26 798.617,-2015.85 811.106,-2118.39 813.602,-2176.73"/>
<polygon fill="black" stroke="black" points="810.104,-2176.86 813.95,-2186.74 817.1,-2176.62 810.104,-2176.86"/>
</g>
<!-- n3219&#45;&gt;n3610 -->
<g id="edge139" class="edge"><title>n3219&#45;&gt;n3610</title>
<path fill="none" stroke="black" d="M626.66,-953.768C661.616,-967.278 713.101,-992.002 744.599,-1029.26 774.827,-1065.01 750.221,-1092.63 780.599,-1128.26 803.149,-1154.7 829.589,-1137.39 848.942,-1166.26 912.791,-1261.49 922.467,-1616.9 923.829,-1749.74"/>
<polygon fill="black" stroke="black" points="920.332,-1750.06 923.922,-1760.03 927.331,-1750 920.332,-1750.06"/>
</g>
<!-- n3230 -->
<g id="node53" class="node"><title>n3230</title>
<ellipse fill="none" stroke="black" cx="704.533" cy="-904.255" rx="40.1317" ry="40.1317"/>
<text text-anchor="middle" x="704.533" y="-900.055" font-family="Times,serif" font-size="14.00">surname</text>
</g>
<!-- n3219&#45;&gt;n3230 -->
<g id="edge136" class="edge"><title>n3219&#45;&gt;n3230</title>
<path fill="none" stroke="black" d="M626.772,-929.14C636.231,-926.073 646.513,-922.74 656.387,-919.539"/>
<polygon fill="black" stroke="black" points="657.645,-922.811 666.078,-916.397 655.486,-916.152 657.645,-922.811"/>
</g>
<!-- n3475&#45;&gt;n193 -->
<g id="edge140" class="edge"><title>n3475&#45;&gt;n193</title>
<path fill="none" stroke="black" d="M727.457,-3698.43C758.451,-3667.92 815.068,-3608.05 848.942,-3547.26 994.424,-3286.16 1008.9,-3203.47 1061.58,-2909.26 1134.55,-2501.72 1130.59,-1148.2 1129.15,-890.75"/>
<polygon fill="black" stroke="black" points="1132.64,-890.661 1129.09,-880.681 1125.64,-890.701 1132.64,-890.661"/>
</g>
<!-- n3475&#45;&gt;n3599 -->
<g id="edge141" class="edge"><title>n3475&#45;&gt;n3599</title>
<path fill="none" stroke="black" d="M714.766,-3690.08C724.053,-3659.37 737.924,-3609.44 744.599,-3565.26 783.748,-3306.09 807.406,-2468.88 812.656,-2265.89"/>
<polygon fill="black" stroke="black" points="816.162,-2265.7 812.92,-2255.61 809.164,-2265.52 816.162,-2265.7"/>
</g>
<!-- n3475&#45;&gt;n3610 -->
<g id="edge142" class="edge"><title>n3475&#45;&gt;n3610</title>
<path fill="none" stroke="black" d="M726.712,-3697.34C732.917,-3690.3 739.419,-3682.24 744.599,-3674.26 804.366,-3582.11 822.761,-3556.92 848.942,-3450.26 926.105,-3135.89 925.55,-2092.7 924.343,-1850.7"/>
<polygon fill="black" stroke="black" points="927.841,-1850.42 924.289,-1840.44 920.841,-1850.46 927.841,-1850.42"/>
</g>
<!-- n3489&#45;&gt;n193 -->
<g id="edge143" class="edge"><title>n3489&#45;&gt;n193</title>
<path fill="none" stroke="black" d="M724.365,-1167.23C731.876,-1151.72 739.851,-1133.01 744.599,-1115.26 765.195,-1038.23 721.456,-811.734 780.599,-758.255 826.913,-716.376 1005.76,-730.287 1061.58,-758.255 1083.27,-769.118 1099.76,-790.653 1110.98,-809.934"/>
<polygon fill="black" stroke="black" points="1108.02,-811.813 1115.92,-818.874 1114.15,-808.428 1108.02,-811.813"/>
</g>
<!-- n3489&#45;&gt;n3599 -->
<g id="edge144" class="edge"><title>n3489&#45;&gt;n3599</title>
<path fill="none" stroke="black" d="M719.579,-1239.43C728.253,-1264 738.8,-1297.11 744.599,-1327.26 806.449,-1648.75 813.36,-2045.36 813.857,-2176.7"/>
<polygon fill="black" stroke="black" points="810.357,-2176.79 813.884,-2186.78 817.357,-2176.77 810.357,-2176.79"/>
</g>
<!-- n3489&#45;&gt;n3610 -->
<g id="edge145" class="edge"><title>n3489&#45;&gt;n3610</title>
<path fill="none" stroke="black" d="M739.837,-1221.27C780.027,-1243.86 842.044,-1279.8 848.942,-1290.26 898.473,-1365.32 916.499,-1636.85 921.959,-1750.1"/>
<polygon fill="black" stroke="black" points="918.47,-1750.41 922.435,-1760.24 925.462,-1750.08 918.47,-1750.41"/>
</g>
<!-- n1674&#45;&gt;n193 -->
<g id="edge147" class="edge"><title>n1674&#45;&gt;n193</title>
<path fill="none" stroke="black" d="M605.654,-2980.89C614.096,-2995.61 623.635,-3014.79 628.467,-3033.26 649.706,-3114.39 609.584,-3723.83 664.467,-3787.26 708.7,-3838.37 746.173,-3816.26 813.77,-3816.26 813.77,-3816.26 813.77,-3816.26 926.008,-3816.26 1094.46,-3816.26 994.119,-3897.58 1061.58,-3432.26 1099.46,-3170.97 1124.56,-1206.54 1128.36,-890.974"/>
<polygon fill="black" stroke="black" points="1131.86,-890.905 1128.48,-880.864 1124.86,-890.821 1131.86,-890.905"/>
</g>
<!-- n1674&#45;&gt;n3599 -->
<g id="edge148" class="edge"><title>n1674&#45;&gt;n3599</title>
<path fill="none" stroke="black" d="M594.98,-2924.86C602.634,-2883.07 616.773,-2805.49 628.467,-2739.26 644.855,-2646.43 611.18,-2608 664.467,-2530.26 687.937,-2496.01 719.637,-2515.43 744.599,-2482.26 793.187,-2417.68 807.704,-2321.72 812.003,-2265.93"/>
<polygon fill="black" stroke="black" points="815.515,-2265.88 812.714,-2255.66 808.532,-2265.39 815.515,-2265.88"/>
</g>
<!-- n1674&#45;&gt;n3610 -->
<g id="edge149" class="edge"><title>n1674&#45;&gt;n3610</title>
<path fill="none" stroke="black" d="M615.02,-2939.45C629.178,-2931.28 647.325,-2921.69 664.467,-2915.26 743.278,-2885.65 794.331,-2936.33 848.942,-2872.26 915.816,-2793.8 923.17,-2051.68 923.932,-1850.4"/>
<polygon fill="black" stroke="black" points="927.432,-1850.41 923.966,-1840.4 920.432,-1850.39 927.432,-1850.41"/>
</g>
<!-- n1756 -->
<g id="node54" class="node"><title>n1756</title>
<ellipse fill="none" stroke="black" cx="704.533" cy="-2955.26" rx="30.9793" ry="30.9793"/>
<text text-anchor="middle" x="704.533" y="-2951.06" font-family="Times,serif" font-size="14.00">initial</text>
</g>
<!-- n1674&#45;&gt;n1756 -->
<g id="edge146" class="edge"><title>n1674&#45;&gt;n1756</title>
<path fill="none" stroke="black" d="M619.388,-2955.26C632.887,-2955.26 649.018,-2955.26 663.528,-2955.26"/>
<polygon fill="black" stroke="black" points="663.746,-2958.76 673.746,-2955.26 663.746,-2951.76 663.746,-2958.76"/>
</g>
<!-- n1725&#45;&gt;n193 -->
<g id="edge150" class="edge"><title>n1725&#45;&gt;n193</title>
<path fill="none" stroke="black" d="M726.298,-3223.82C793.573,-3136.08 1004.49,-2844.03 1061.58,-2561.26 1128.99,-2227.42 1129.65,-1121.45 1129.03,-890.683"/>
<polygon fill="black" stroke="black" points="1132.53,-890.658 1129,-880.669 1125.53,-890.679 1132.53,-890.658"/>
</g>
<!-- n1725&#45;&gt;n3599 -->
<g id="edge151" class="edge"><title>n1725&#45;&gt;n3599</title>
<path fill="none" stroke="black" d="M718.287,-3218.49C727.209,-3194.84 738.569,-3161.54 744.599,-3131.26 809.815,-2803.7 814.531,-2398.59 814.162,-2265.72"/>
<polygon fill="black" stroke="black" points="817.661,-2265.52 814.122,-2255.54 810.661,-2265.55 817.661,-2265.52"/>
</g>
<!-- n1725&#45;&gt;n3610 -->
<g id="edge152" class="edge"><title>n1725&#45;&gt;n3610</title>
<path fill="none" stroke="black" d="M732.147,-3230.11C746.438,-3219.37 764.399,-3205.98 780.599,-3194.26 810.665,-3172.49 830.915,-3178.7 848.942,-3146.26 912.784,-3031.34 922.385,-2081.41 923.778,-1850.63"/>
<polygon fill="black" stroke="black" points="927.279,-1850.53 923.837,-1840.51 920.279,-1850.48 927.279,-1850.53"/>
</g>
<!-- n1736&#45;&gt;n193 -->
<g id="edge153" class="edge"><title>n1736&#45;&gt;n193</title>
<path fill="none" stroke="black" d="M733.11,-3053.61C785.479,-2997.76 899.898,-2868.5 965.073,-2740.26 1030.45,-2611.61 1036.86,-2572.42 1061.58,-2430.26 1115.19,-2121.98 1126.66,-1110.99 1128.54,-890.829"/>
<polygon fill="black" stroke="black" points="1132.05,-890.684 1128.63,-880.655 1125.05,-890.626 1132.05,-890.684"/>
</g>
<!-- n1736&#45;&gt;n3599 -->
<g id="edge154" class="edge"><title>n1736&#45;&gt;n3599</title>
<path fill="none" stroke="black" d="M724.462,-3047.25C731.991,-3031.75 739.952,-3013.04 744.599,-2995.26 781.076,-2855.66 804.887,-2408.99 811.733,-2265.85"/>
<polygon fill="black" stroke="black" points="815.237,-2265.84 812.215,-2255.68 808.245,-2265.5 815.237,-2265.84"/>
</g>
<!-- n1736&#45;&gt;n3610 -->
<g id="edge155" class="edge"><title>n1736&#45;&gt;n3610</title>
<path fill="none" stroke="black" d="M744.758,-3078.97C778.265,-3073.9 824.769,-3061 848.942,-3028.26 919.728,-2932.36 924.142,-2070.05 924.112,-1850.79"/>
<polygon fill="black" stroke="black" points="927.612,-1850.54 924.108,-1840.54 920.612,-1850.54 927.612,-1850.54"/>
</g>
<!-- n1778&#45;&gt;n1822 -->
<g id="edge156" class="edge"><title>n1778&#45;&gt;n1822</title>
<path fill="none" stroke="black" d="M512.528,-3312.26C520.653,-3312.26 529.513,-3312.26 538.203,-3312.26"/>
<polygon fill="black" stroke="black" points="538.272,-3315.76 548.272,-3312.26 538.272,-3308.76 538.272,-3315.76"/>
</g>
<!-- n1822&#45;&gt;n193 -->
<g id="edge158" class="edge"><title>n1822&#45;&gt;n193</title>
<path fill="none" stroke="black" d="M600.851,-3350.43C609.751,-3381.58 621.687,-3426.89 628.467,-3467.26 643.91,-3559.2 605.699,-3812.88 664.467,-3885.26 708.153,-3939.06 744.465,-3930.26 813.77,-3930.26 813.77,-3930.26 813.77,-3930.26 926.008,-3930.26 975.308,-3930.26 1041.67,-3855.98 1061.58,-3809.26 1121.38,-3668.91 1128.13,-1243.51 1128.8,-890.875"/>
<polygon fill="black" stroke="black" points="1132.3,-890.825 1128.82,-880.819 1125.3,-890.812 1132.3,-890.825"/>
</g>
<!-- n1822&#45;&gt;n3599 -->
<g id="edge159" class="edge"><title>n1822&#45;&gt;n3599</title>
<path fill="none" stroke="black" d="M609.616,-3277.91C616.871,-3263.91 624.287,-3247.27 628.467,-3231.26 661.473,-3104.8 596.584,-2755.93 664.467,-2644.26 686.031,-2608.78 720.927,-2630.36 744.599,-2596.26 781.462,-2543.14 802.339,-2352.8 810.166,-2265.53"/>
<polygon fill="black" stroke="black" points="813.666,-2265.69 811.056,-2255.42 806.693,-2265.07 813.666,-2265.69"/>
</g>
<!-- n1822&#45;&gt;n3610 -->
<g id="edge160" class="edge"><title>n1822&#45;&gt;n3610</title>
<path fill="none" stroke="black" d="M628.374,-3317.11C662.121,-3319.22 710.708,-3317.03 744.599,-3293.26 773.564,-3272.94 756.063,-3247.75 780.599,-3222.26 804.7,-3197.22 830.517,-3213.72 848.942,-3184.26 920.751,-3069.4 924.312,-2085.92 924.128,-1850.66"/>
<polygon fill="black" stroke="black" points="927.628,-1850.34 924.117,-1840.35 920.628,-1850.35 927.628,-1850.34"/>
</g>
<!-- n1842 -->
<g id="node55" class="node"><title>n1842</title>
<ellipse fill="none" stroke="black" cx="704.533" cy="-3380.26" rx="40.1317" ry="40.1317"/>
<text text-anchor="middle" x="704.533" y="-3376.06" font-family="Times,serif" font-size="14.00">surname</text>
</g>
<!-- n1822&#45;&gt;n1842 -->
<g id="edge157" class="edge"><title>n1822&#45;&gt;n1842</title>
<path fill="none" stroke="black" d="M623.335,-3332.47C635.074,-3339.47 648.384,-3347.4 660.74,-3354.76"/>
<polygon fill="black" stroke="black" points="659.15,-3357.89 669.532,-3360 662.733,-3351.87 659.15,-3357.89"/>
</g>
<!-- n1551&#45;&gt;n193 -->
<g id="edge161" class="edge"><title>n1551&#45;&gt;n193</title>
<path fill="none" stroke="black" d="M719.618,-1638.07C782.377,-1516.95 1036.64,-1026.24 1109.35,-885.911"/>
<polygon fill="black" stroke="black" points="1112.58,-887.29 1114.07,-876.801 1106.37,-884.07 1112.58,-887.29"/>
</g>
<!-- n1551&#45;&gt;n3599 -->
<g id="edge162" class="edge"><title>n1551&#45;&gt;n3599</title>
<path fill="none" stroke="black" d="M721.3,-1691.44C729.485,-1706.17 738.931,-1725.19 744.599,-1743.26 793.092,-1897.82 807.787,-2091.32 812.079,-2176.97"/>
<polygon fill="black" stroke="black" points="808.59,-2177.29 812.564,-2187.11 815.583,-2176.95 808.59,-2177.29"/>
</g>
<!-- n1551&#45;&gt;n3610 -->
<g id="edge163" class="edge"><title>n1551&#45;&gt;n3610</title>
<path fill="none" stroke="black" d="M735.13,-1669.49C765.715,-1674.97 813.812,-1686.74 848.942,-1710.26 867.686,-1722.8 884.273,-1741.36 897.056,-1758.37"/>
<polygon fill="black" stroke="black" points="894.305,-1760.54 903.019,-1766.56 899.964,-1756.42 894.305,-1760.54"/>
</g>
<!-- n1799&#45;&gt;n193 -->
<g id="edge164" class="edge"><title>n1799&#45;&gt;n193</title>
<path fill="none" stroke="black" d="M724.335,-1757.35C780.508,-1652.21 950.09,-1328.43 1061.58,-1047.26 1083.02,-993.187 1103.86,-929.252 1116.53,-888.728"/>
<polygon fill="black" stroke="black" points="1119.94,-889.539 1119.57,-878.951 1113.26,-887.461 1119.94,-889.539"/>
</g>
<!-- n1799&#45;&gt;n3599 -->
<g id="edge165" class="edge"><title>n1799&#45;&gt;n3599</title>
<path fill="none" stroke="black" d="M730.981,-1822.52C736.163,-1829.91 741.093,-1838.06 744.599,-1846.26 792.82,-1958.94 807.472,-2104.78 811.889,-2176.87"/>
<polygon fill="black" stroke="black" points="808.4,-2177.18 812.469,-2186.96 815.389,-2176.78 808.4,-2177.18"/>
</g>
<!-- n1799&#45;&gt;n3610 -->
<g id="edge166" class="edge"><title>n1799&#45;&gt;n3610</title>
<path fill="none" stroke="black" d="M744.592,-1793.69C780.984,-1795.02 835.396,-1797.01 874.753,-1798.45"/>
<polygon fill="black" stroke="black" points="874.798,-1801.96 884.919,-1798.82 875.054,-1794.96 874.798,-1801.96"/>
</g>
<!-- n3186&#45;&gt;n193 -->
<g id="edge167" class="edge"><title>n3186&#45;&gt;n193</title>
<path fill="none" stroke="black" d="M718.697,-711.921C734.847,-679.654 762.327,-629.003 780.599,-618.255 888.241,-554.939 963.974,-541.356 1061.58,-619.255 1090.76,-642.541 1112.2,-746.491 1122.33,-806.021"/>
<polygon fill="black" stroke="black" points="1118.94,-806.948 1124.04,-816.236 1125.85,-805.797 1118.94,-806.948"/>
</g>
<!-- n3186&#45;&gt;n3599 -->
<g id="edge168" class="edge"><title>n3186&#45;&gt;n3599</title>
<path fill="none" stroke="black" d="M717.391,-767.274C726.59,-790.414 738.729,-824.357 744.599,-855.255 794.389,-1117.37 810.067,-1971.87 813.154,-2176.79"/>
<polygon fill="black" stroke="black" points="809.656,-2176.94 813.304,-2186.88 816.655,-2176.83 809.656,-2176.94"/>
</g>
<!-- n3186&#45;&gt;n3610 -->
<g id="edge169" class="edge"><title>n3186&#45;&gt;n3610</title>
<path fill="none" stroke="black" d="M727.582,-759.99C733.976,-767.106 740.367,-775.499 744.599,-784.255 782.373,-862.427 733.607,-903.251 780.599,-976.255 800.689,-1007.47 830.259,-992.182 848.942,-1024.26 921.046,-1148.03 925.233,-1597.64 924.521,-1749.64"/>
<polygon fill="black" stroke="black" points="921.018,-1750.04 924.462,-1760.06 928.018,-1750.08 921.018,-1750.04"/>
</g>
<!-- n3230&#45;&gt;n193 -->
<g id="edge170" class="edge"><title>n3230&#45;&gt;n193</title>
<path fill="none" stroke="black" d="M717.833,-866.362C725.744,-841.643 736.096,-808.63 744.599,-779.255 761.864,-719.607 731.357,-682.087 780.599,-644.255 830.114,-606.214 1010.99,-607.665 1061.58,-644.255 1112.4,-681.004 1125.49,-757.498 1128.49,-805.665"/>
<polygon fill="black" stroke="black" points="1125,-805.971 1128.99,-815.783 1131.99,-805.62 1125,-805.971"/>
</g>
<!-- n3230&#45;&gt;n3599 -->
<g id="edge171" class="edge"><title>n3230&#45;&gt;n3599</title>
<path fill="none" stroke="black" d="M719.773,-941.396C728.528,-965.949 739.09,-999.059 744.599,-1029.26 785.969,-1256.04 807.667,-1988.55 812.647,-2176.81"/>
<polygon fill="black" stroke="black" points="809.151,-2177 812.912,-2186.9 816.148,-2176.81 809.151,-2177"/>
</g>
<!-- n3230&#45;&gt;n3610 -->
<g id="edge172" class="edge"><title>n3230&#45;&gt;n3610</title>
<path fill="none" stroke="black" d="M730.684,-935.038C735.818,-942.34 740.803,-950.322 744.599,-958.255 770.844,-1013.11 745.645,-1040.5 780.599,-1090.26 801.935,-1120.63 829.995,-1106.34 848.942,-1138.26 910.297,-1241.61 921.506,-1613.48 923.551,-1749.75"/>
<polygon fill="black" stroke="black" points="920.054,-1749.96 923.693,-1759.91 927.053,-1749.86 920.054,-1749.96"/>
</g>
<!-- n1756&#45;&gt;n193 -->
<g id="edge173" class="edge"><title>n1756&#45;&gt;n193</title>
<path fill="none" stroke="black" d="M729.555,-2936.63C781.747,-2894.72 905.574,-2787.26 965.073,-2667.26 1127.02,-2340.63 1130.19,-1133.08 1129.15,-890.761"/>
<polygon fill="black" stroke="black" points="1132.65,-890.583 1129.1,-880.6 1125.65,-890.617 1132.65,-890.583"/>
</g>
<!-- n1756&#45;&gt;n3599 -->
<g id="edge174" class="edge"><title>n1756&#45;&gt;n3599</title>
<path fill="none" stroke="black" d="M717.072,-2926.66C725.96,-2903.47 737.838,-2869.75 744.599,-2839.26 791.482,-2627.77 807.366,-2368.15 812.043,-2265.77"/>
<polygon fill="black" stroke="black" points="815.552,-2265.65 812.498,-2255.5 808.558,-2265.34 815.552,-2265.65"/>
</g>
<!-- n1756&#45;&gt;n3610 -->
<g id="edge175" class="edge"><title>n1756&#45;&gt;n3610</title>
<path fill="none" stroke="black" d="M735.404,-2955.15C768.85,-2953.26 821.898,-2944.59 848.942,-2910.26 915.126,-2826.22 922.977,-2056.47 923.891,-1850.66"/>
<polygon fill="black" stroke="black" points="927.392,-1850.45 923.933,-1840.44 920.392,-1850.43 927.392,-1850.45"/>
</g>
<!-- n1842&#45;&gt;n193 -->
<g id="edge176" class="edge"><title>n1842&#45;&gt;n193</title>
<path fill="none" stroke="black" d="M729.352,-3348.65C799.536,-3253.07 1004.21,-2956.17 1061.58,-2671.26 1133.39,-2314.66 1130.5,-1130.21 1129.15,-890.701"/>
<polygon fill="black" stroke="black" points="1132.65,-890.631 1129.1,-880.652 1125.65,-890.672 1132.65,-890.631"/>
</g>
<!-- n1842&#45;&gt;n3599 -->
<g id="edge177" class="edge"><title>n1842&#45;&gt;n3599</title>
<path fill="none" stroke="black" d="M724.674,-3345.31C732.24,-3329.82 740.172,-3311.09 744.599,-3293.26 794.12,-3093.7 809.65,-2442.63 813.005,-2265.88"/>
<polygon fill="black" stroke="black" points="816.509,-2265.71 813.196,-2255.65 809.51,-2265.58 816.509,-2265.71"/>
</g>
<!-- n1842&#45;&gt;n3610 -->
<g id="edge178" class="edge"><title>n1842&#45;&gt;n3610</title>
<path fill="none" stroke="black" d="M728.962,-3348.48C734.185,-3341.23 739.642,-3333.52 744.599,-3326.26 761.276,-3301.82 760.109,-3291.6 780.599,-3270.26 806.302,-3243.48 830.964,-3254.73 848.942,-3222.26 916.452,-3100.31 923.273,-2089.65 923.94,-1850.74"/>
<polygon fill="black" stroke="black" points="927.44,-1850.61 923.966,-1840.6 920.44,-1850.59 927.44,-1850.61"/>
</g>
</g>
</svg>
